<svg xmlns:xlink="http://www.w3.org/1999/xlink" xmlns="http://www.w3.org/2000/svg" viewBox="0 0 102 20" width="102"  height="20" ><path fill="#333E48" d="M75.19 1.786c-.994 0-1.933.326-2.815.98v5.94c.896.683 1.82 1.023 2.774 1.023 1.932 0 2.899-1.32 2.899-3.96 0-2.655-.953-3.983-2.858-3.983zm-2.962-.277A5.885 5.885 0 0173.93.444a4.926 4.926 0 011.85-.362c.672 0 1.282.127 1.827.383a3.763 3.763 0 011.387 1.108c.378.482.669 1.068.872 1.757.203.689.305 1.466.305 2.332 0 .88-.109 1.675-.326 2.385-.217.71-.522 1.314-.914 1.81a4.137 4.137 0 01-1.429 1.16 4.165 4.165 0 01-1.87.416c-1.26 0-2.346-.419-3.256-1.256v4.983c0 .284-.14.426-.42.426h-1.24c-.28 0-.42-.142-.42-.426V.827c0-.284.14-.426.42-.426h.925c.28 0 .441.142.483.426l.105.682zm13.194 8.37a4.21 4.21 0 001.45-.277 5.463 5.463 0 001.45-.81V6.62c-.35-.085-.719-.152-1.104-.202a8.8 8.8 0 00-1.124-.075c-1.583 0-2.374.617-2.374 1.853 0 .54.147.955.441 1.246.294.29.715.437 1.261.437zm-2.458-7.625l-.158.053a.561.561 0 01-.179.033c-.182 0-.273-.128-.273-.384V1.38c0-.199.028-.337.084-.415.056-.078.169-.153.337-.224.448-.199 1-.359 1.66-.48.657-.12 1.316-.18 1.974-.18 1.33 0 2.311.277 2.942.83.63.554.945 1.413.945 2.577v7.284c0 .284-.14.426-.42.426h-.903c-.267 0-.42-.135-.463-.405l-.105-.702a5.74 5.74 0 01-1.67 1.022 4.908 4.908 0 01-1.817.362c-1.009 0-1.807-.288-2.395-.863-.589-.575-.883-1.345-.883-2.31 0-1.037.364-1.864 1.092-2.481.73-.618 1.71-.927 2.942-.927.784 0 1.667.12 2.647.362V3.852c0-.767-.168-1.307-.504-1.619-.336-.313-.925-.469-1.764-.469-.982 0-2.01.163-3.09.49zm14.16 10.84c-.379.98-.816 1.683-1.314 2.109-.496.426-1.144.639-1.943.639-.448 0-.847-.05-1.197-.15a.606.606 0 01-.336-.202c-.07-.093-.105-.237-.105-.437V14.5c0-.27.105-.405.315-.405.07 0 .175.014.315.043.14.028.33.043.567.043.532 0 .946-.128 1.24-.384.294-.255.56-.724.798-1.406l.4-1.086-4.056-10.137c-.098-.241-.146-.411-.146-.511 0-.17.097-.256.294-.256h1.26c.224 0 .378.036.463.106.083.072.167.228.251.47l2.942 8.263L99.708.976c.084-.24.168-.397.252-.469.084-.07.238-.106.462-.106h1.177c.196 0 .294.086.294.256 0 .1-.05.27-.147.51l-4.622 11.927M40.15 15.47c-3.761 2.814-9.216 4.31-13.912 4.31-6.583 0-12.51-2.466-16.996-6.572-.352-.322-.038-.763.385-.513 4.84 2.855 10.825 4.574 17.006 4.574 4.17 0 8.753-.877 12.971-2.691.636-.273 1.17.425.547.891"></path><path fill="#333E48" d="M41.717 13.657c-.482-.624-3.181-.296-4.394-.148-.368.044-.425-.281-.093-.517 2.153-1.533 5.682-1.09 6.092-.577.413.518-.108 4.104-2.127 5.816-.31.263-.605.122-.468-.225.455-1.15 1.471-3.724.99-4.349M37.429 2.06V.57A.365.365 0 0137.8.193l6.59-.001c.21 0 .38.155.38.376v1.278c-.003.214-.18.494-.496.938L40.86 7.722c1.267-.03 2.607.163 3.757.818.26.148.33.367.35.582v1.59c0 .218-.237.472-.485.34-2.028-1.077-4.718-1.194-6.96.013-.23.124-.47-.126-.47-.345V9.209c0-.242.005-.656.246-1.024l3.953-5.75H37.81a.369.369 0 01-.38-.375M13.4 11.365h-2.005a.38.38 0 01-.358-.343L11.038.595a.38.38 0 01.387-.375h1.866a.38.38 0 01.365.35v1.36h.037C14.18.615 15.096 0 16.331 0c1.253 0 2.039.614 2.6 1.93C19.418.615 20.521 0 21.7 0c.842 0 1.758.351 2.32 1.141.635.878.505 2.15.505 3.27l-.002 6.58a.38.38 0 01-.387.374h-2.001a.378.378 0 01-.36-.374V5.463c0-.438.037-1.535-.056-1.952-.15-.703-.6-.9-1.179-.9-.486 0-.991.33-1.197.855-.206.527-.188 1.405-.188 1.997v5.527a.38.38 0 01-.386.375h-2.002a.379.379 0 01-.36-.374l-.001-5.528c0-1.163.186-2.874-1.235-2.874-1.44 0-1.384 1.668-1.384 2.874l-.001 5.527a.38.38 0 01-.387.375m37.059-9.236c-1.478 0-1.571 2.04-1.571 3.312 0 1.273-.02 3.993 1.552 3.993 1.554 0 1.628-2.194 1.628-3.532 0-.877-.038-1.93-.3-2.764-.224-.724-.673-1.01-1.31-1.01zM50.439 0c2.975 0 4.584 2.59 4.584 5.88 0 3.181-1.777 5.705-4.584 5.705-2.918 0-4.508-2.59-4.508-5.814C45.93 2.523 47.539 0 50.439 0zm8.441 11.365h-1.997a.379.379 0 01-.36-.374L56.52.561a.381.381 0 01.386-.34L58.764.22c.175.009.32.13.356.291v1.595h.038C59.72.68 60.505 0 61.89 0c.898 0 1.778.329 2.339 1.229.524.834.524 2.237.524 3.247v6.561a.382.382 0 01-.385.328H62.36a.38.38 0 01-.357-.328V5.376c0-1.141.13-2.809-1.253-2.809-.487 0-.936.33-1.16.834-.281.636-.319 1.272-.319 1.975v5.614a.386.386 0 01-.39.375m-24.684.075a.41.41 0 01-.473.047c-.665-.56-.785-.82-1.149-1.354-1.1 1.136-1.879 1.477-3.304 1.477-1.687 0-3-1.055-3-3.166 0-1.65.882-2.77 2.138-3.32 1.087-.484 2.606-.572 3.769-.704v-.264c0-.484.037-1.055-.245-1.473-.243-.374-.712-.528-1.124-.528-.765 0-1.444.397-1.611 1.22-.035.183-.167.364-.348.374l-1.943-.214c-.164-.037-.346-.17-.299-.425C27.055.721 29.183 0 31.09 0c.975 0 2.25.263 3.018 1.011.975.924.881 2.155.881 3.497v3.165c0 .952.39 1.37.757 1.882.128.185.156.405-.007.54-.409.348-1.136.988-1.537 1.35l-.005-.005zm-2.02-4.953v-.44c-1.45 0-2.98.314-2.98 2.045 0 .88.45 1.473 1.218 1.473.562 0 1.069-.352 1.387-.923.394-.704.376-1.363.376-2.155zM7.926 11.44a.41.41 0 01-.473.047c-.667-.56-.786-.82-1.15-1.354C5.204 11.27 4.425 11.61 3 11.61c-1.688 0-3-1.055-3-3.166 0-1.65.88-2.77 2.137-3.32 1.087-.484 2.606-.572 3.768-.704v-.264c0-.484.038-1.055-.243-1.473-.244-.374-.713-.528-1.125-.528-.764 0-1.444.397-1.61 1.22-.036.183-.168.364-.35.374l-1.94-.214c-.165-.037-.347-.17-.3-.425C.783.721 2.911 0 4.818 0c.975 0 2.25.263 3.018 1.011.975.924.882 2.155.882 3.497v3.165c0 .952.39 1.37.756 1.882.128.185.157.405-.006.54a78.47 78.47 0 00-1.537 1.35l-.005-.005zm-2.02-4.953v-.44c-1.45 0-2.982.314-2.982 2.045 0 .88.45 1.473 1.219 1.473.562 0 1.069-.352 1.387-.923.394-.704.375-1.363.375-2.155z"></path></svg>