<svg xmlns:xlink="http://www.w3.org/1999/xlink" xmlns="http://www.w3.org/2000/svg" preserveAspectRatio="xMidYMid" viewBox="0 0 424 102" fill="inherit" class="_39qGk" title="Shop Pay" style="fill: white;" width="424"  height="102" ><path fill-rule="evenodd" clip-rule="evenodd" d="M204.916 30.1c3.978-4.92 10.15-8.998 17.52-8.998 16.544 0 29.576 13.696 29.565 30.595 0 17.61-13.096 30.64-28.81 30.64-8.355 0-14.75-4.277-17.087-7.845h-.222v25.864a.585.585 0 01-.586.589h-14.727a.598.598 0 01-.6-.587v-78.68c0-.16.064-.31.177-.422a.594.594 0 01.423-.175h13.763a.59.59 0 01.415.18c.11.11.17.26.17.418V30.1zm16.263 37.243a15.623 15.623 0 01-11.66-4.689 15.628 15.628 0 01-4.2-13.715 15.61 15.61 0 0115.831-12.812 15.345 15.345 0 0110.777 4.61 15.348 15.348 0 014.37 10.957 15.46 15.46 0 01-1.086 5.93 15.413 15.413 0 01-14.033 9.716z" fill="#FFFFFF"></path><path d="M109.306 32.87c-3.402-7.136-9.852-11.746-19.57-11.746a19.486 19.486 0 00-15.304 7.868l-.354.432V1.454a.604.604 0 00-.18-.43.603.603 0 00-.43-.18h-13.74a.61.61 0 00-.599.61v80.23a.595.595 0 00.596.598h14.717a.612.612 0 00.61-.598v-34.21c0-6.647 4.433-11.357 11.525-11.357 7.757 0 9.718 6.383 9.718 12.888v32.68a.599.599 0 00.6.597h14.683a.61.61 0 00.61-.598v-34.63c0-1.185 0-2.35-.155-3.48a30.623 30.623 0 00-2.726-10.704zm-73.48 11.89s-7.49-1.76-10.25-2.47c-2.76-.71-7.58-2.217-7.58-5.863 0-3.646 3.89-4.81 7.833-4.81 3.944 0 8.332.954 8.675 5.33a.63.63 0 00.631.575l14.505-.055a.636.636 0 00.456-.198.631.631 0 00.164-.467c-.898-14.008-13.187-19.017-24.523-19.017-13.44 0-23.27 8.865-23.27 18.64 0 7.136 2.016 13.83 17.873 18.483 2.782.81 6.56 1.862 9.863 2.78 3.967 1.11 6.105 2.783 6.105 5.42 0 3.06-4.43 5.186-8.786 5.186-6.305 0-10.782-2.338-11.148-6.538a.636.636 0 00-.632-.555l-14.472.067a.63.63 0 00-.632.653c.666 13.22 13.432 20.346 25.334 20.346 17.73 0 25.742-9.973 25.742-19.315.022-4.388-.987-14.384-15.89-18.196zm110.558-27.116c-13.73 0-20.578 4.666-26.074 8.4l-.167.11c-.283.195-.483.49-.56.823-.075.335-.02.687.15.984l5.43 9.355c.102.175.24.325.408.44a1.41 1.41 0 001.146.199c.192-.052.37-.146.52-.275l.433-.356c2.824-2.372 7.357-5.54 18.327-6.405 6.106-.49 11.38 1.107 15.27 4.742 4.278 3.945 6.838 10.316 6.838 17.043 0 12.378-7.292 20.157-19.005 20.312-9.653-.055-16.135-5.086-16.135-12.522 0-3.945 1.784-6.516 5.263-9.087.266-.19.454-.47.53-.788a1.356 1.356 0 00-.12-.94l-4.876-9.22a1.43 1.43 0 00-1.423-.734c-.19.025-.376.09-.54.19-5.474 3.247-12.19 9.186-11.824 20.6.443 14.528 12.522 25.62 28.224 26.075h1.863c18.66-.61 32.136-14.46 32.136-33.244 0-17.242-12.568-35.704-35.817-35.704z" fill="#FFFFFF"></path><path fill-rule="evenodd" clip-rule="evenodd" d="M282.375 1.044h125.652c8.672 0 15.703 7.03 15.703 15.703V85.54c0 8.672-7.03 15.702-15.703 15.702H282.375c-8.672 0-15.702-7.03-15.702-15.702V16.747c0-8.673 7.03-15.703 15.702-15.703zm28.19 54.488c10.484 0 17.986-7.647 17.986-18.362 0-10.66-7.5-18.35-17.983-18.35H292.06a.827.827 0 00-.831.83v50.786c0 .22.09.43.245.585a.836.836 0 00.584.248h6.96a.827.827 0 00.829-.831V56.363a.832.832 0 01.831-.831h9.885zm-.53-29c5.695 0 9.895 4.5 9.895 10.638 0 6.15-4.2 10.638-9.896 10.638h-9.352a.829.829 0 01-.832-.82V27.363a.844.844 0 01.832-.831h9.352zM330.6 61.526a9.903 9.903 0 01.988-4.757 9.86 9.86 0 013.136-3.71c2.704-2.03 6.892-3.08 13.11-3.325l6.592-.222v-1.95c0-3.89-2.615-5.54-6.815-5.54-4.197 0-6.846 1.484-7.466 3.91a.803.803 0 01-.798.577h-6.505a.802.802 0 01-.634-.277.81.81 0 01-.196-.664c.974-5.764 5.74-10.14 15.9-10.14 10.794 0 14.683 5.02 14.683 14.604V70.4a.792.792 0 01-.06.32.822.822 0 01-.77.523h-6.572a.842.842 0 01-.59-.244.845.845 0 01-.24-.595v-1.52a.634.634 0 00-.09-.38.633.633 0 00-.3-.25.644.644 0 00-.39-.02.626.626 0 00-.327.22c-1.962 2.137-5.153 3.69-10.24 3.69-7.457.02-12.41-3.88-12.41-10.617zm23.826-4.433V55.52l-8.532.444c-4.5.232-7.126 2.105-7.126 5.252 0 2.848 2.405 4.433 6.594 4.433 5.696 0 9.064-3.083 9.064-8.546v-.01zm14.772 23.626v5.927a.855.855 0 00.609.864c1.16.317 2.357.463 3.558.434 6.37 0 12.19-2.327 15.514-11.392l14.625-39.018a.846.846 0 00-.113-.753.848.848 0 00-.675-.354H395.9a.831.831 0 00-.798.577l-8.056 24.71a.832.832 0 01-.314.4c-.143.1-.312.152-.485.152s-.34-.053-.484-.15a.886.886 0 01-.313-.4l-9.286-24.78a.849.849 0 00-.31-.39.847.847 0 00-.477-.152h-6.648a.844.844 0 00-.786 1.109L381.62 72.63a.82.82 0 010 .565l-.432 1.363a7.878 7.878 0 01-7.945 5.621 16.409 16.409 0 01-3.048-.29.847.847 0 00-.996.834z" fill="#FFFFFF"></path></svg>