<svg xmlns:xlink="http://www.w3.org/1999/xlink" width="145" height="88" viewBox="0 0 145 88" fill="none" xmlns="http://www.w3.org/2000/svg">
<path d="M4.90857 64.4381C4.35039 64.4381 3.95409 64.0707 3.87874 63.4818L3.8285 63.1368C3.75594 62.6124 3.68058 62.0712 3.54383 61.5552C3.35126 60.7784 3.13078 59.9904 2.91867 59.2304C2.79588 58.7929 2.67587 58.3555 2.55865 57.9208C2.40794 57.3908 2.16514 55.7026 2.01722 55.1725C1.95582 54.9538 1.89442 54.7351 1.83582 54.5163C1.83582 55.195 1.93629 57.0458 1.95024 57.7273C1.95024 57.9096 1.96699 58.089 1.98652 58.2769C2.00606 58.4704 2.02559 58.6723 2.02559 58.8771C2.02559 59.1463 2.01164 59.4155 1.9949 59.6763C1.97536 59.9988 1.95861 60.3297 1.96699 60.6578C1.98652 61.4907 2.05629 62.2899 2.13165 63.1368L2.13444 63.1733C2.15677 63.2743 2.15677 63.364 2.15677 63.4453C2.15677 63.5351 2.15677 63.6697 2.09816 63.8155C1.98373 64.166 1.64324 64.3904 1.21345 64.3904C0.538058 64.3904 0.119427 63.9557 0.119427 63.2518C0.138963 62.2591 0.102682 61.286 0.0636093 60.2568L0.0608185 60.2147C0.0552367 59.9006 0.0468641 59.595 0.0384915 59.2865C0.0217462 58.6976 0.00500095 58.089 0.00500095 57.4805C0.00500095 56.8972 0.0189553 56.3083 0.0329097 55.7418C0.0468641 55.1782 0.0608185 54.592 0.0608185 54.0172C0.0608185 53.5208 0.0468641 53.016 0.0301188 52.5253C0.0105827 51.9083 -0.00616255 51.2717 0.00221007 50.6407C0.00221007 50.2173 0.049655 49.7966 0.094309 49.39C0.127799 49.1012 0.158499 48.8291 0.172454 48.5543C0.19199 47.9878 0.200362 47.4158 0.211526 46.8437C0.219898 46.2716 0.231062 45.6939 0.250598 45.1134C0.250598 44.9059 0.328743 44.7432 0.373397 44.6563C0.549222 44.3282 1.52324 44.2749 1.5344 44.2749C1.62929 44.2749 1.70185 44.2889 1.76046 44.3226C1.85535 44.3759 1.93908 44.4347 2.02001 44.4908C2.0535 44.5161 2.08979 44.5385 2.12328 44.5637C2.53912 44.9003 2.95496 45.2228 3.3708 45.5453C3.68617 45.8033 3.89827 46.1061 4.04898 46.5071C4.14108 46.7203 4.1969 46.953 4.25271 47.1774C4.26946 47.2419 4.2862 47.3064 4.30295 47.3737C4.73274 49.1236 3.8592 50.4052 3.04985 51.325C2.96612 51.4316 2.86007 51.5045 2.79029 51.5465C2.8489 51.7513 2.9103 51.956 2.9717 52.1579C3.03031 52.3542 3.08892 52.5449 3.14474 52.7356C3.31498 53.3581 3.49639 53.9779 3.67779 54.5948C3.8592 55.2146 4.03782 55.8344 4.20806 56.4513C4.40063 57.1664 4.57366 57.8955 4.74112 58.5994C4.85833 59.093 4.97555 59.5838 5.09835 60.0745C5.31883 60.9635 5.5421 61.8356 5.76258 62.705L5.78211 62.7779C5.81281 62.8817 5.82119 62.9826 5.82956 63.0723C5.83235 63.1116 5.83793 63.1481 5.84351 63.1817C5.88538 63.3668 5.93282 63.7538 5.71792 64.0595C5.61745 64.1997 5.42209 64.3764 5.0509 64.4212C5.00346 64.4353 4.95601 64.4381 4.90857 64.4381ZM1.71023 50.1696C2.1763 49.662 2.514 49.1012 2.55028 48.7001C2.65912 47.7158 2.45539 46.9586 1.9028 46.3417L1.71023 50.1696Z" fill="#636732"></path>
<path d="M51.766 64.4381C51.2078 64.4381 50.8115 64.0707 50.7362 63.4818L50.6859 63.1368C50.6134 62.6124 50.538 62.0712 50.4013 61.5552C50.2087 60.7784 49.9882 59.9904 49.7761 59.2304C49.6533 58.7929 49.5333 58.3555 49.4161 57.9208C49.2654 57.3908 49.0226 55.7026 48.8746 55.1725C48.8132 54.9538 48.7518 54.7351 48.6932 54.5163C48.6932 55.195 48.7937 57.0458 48.8077 57.7273C48.8077 57.9096 48.8244 58.089 48.8439 58.2769C48.8635 58.4704 48.883 58.6723 48.883 58.8771C48.883 59.1463 48.8691 59.4155 48.8523 59.6763C48.8328 59.9988 48.816 60.3297 48.8244 60.6578C48.8439 61.4907 48.9137 62.2899 48.9891 63.1368L48.9919 63.1733C49.0142 63.2743 49.0142 63.364 49.0142 63.4453C49.0142 63.5351 49.0142 63.6697 48.9556 63.8155C48.8412 64.166 48.5007 64.3904 48.0709 64.3904C47.3955 64.3904 46.9768 63.9557 46.9768 63.2518C46.9964 62.2591 46.9601 61.286 46.921 60.2568L46.9182 60.2147C46.9127 59.9006 46.9043 59.595 46.8959 59.2865C46.8792 58.6976 46.8624 58.089 46.8624 57.4805C46.8624 56.8972 46.8764 56.3083 46.8903 55.7418C46.9043 55.1782 46.9182 54.592 46.9182 54.0172C46.9182 53.5208 46.9043 53.016 46.8875 52.5253C46.868 51.9083 46.8513 51.2717 46.8596 50.6407C46.8596 50.2173 46.9071 49.7966 46.9517 49.39C46.9852 49.1012 47.0159 48.8291 47.0299 48.5543C47.0494 47.9878 47.0578 47.4158 47.0689 46.8437C47.0773 46.2716 47.0885 45.6939 47.108 45.1134C47.108 44.9059 47.1862 44.7432 47.2308 44.6563C47.4066 44.3282 48.3807 44.2749 48.3918 44.2749C48.4867 44.2749 48.5593 44.2889 48.6179 44.3226C48.7128 44.3759 48.7965 44.4347 48.8774 44.4908C48.9109 44.5161 48.9472 44.5385 48.9807 44.5637C49.3965 44.9003 49.8124 45.2228 50.2282 45.5453C50.5436 45.8033 50.7557 46.1061 50.9064 46.5071C50.9985 46.7203 51.0543 46.953 51.1101 47.1774C51.1269 47.2419 51.1436 47.3064 51.1604 47.3737C51.5902 49.1236 50.7166 50.4052 49.9073 51.325C49.8235 51.4316 49.7175 51.5045 49.6477 51.5465C49.7063 51.7513 49.7677 51.956 49.8291 52.1579C49.8877 52.3542 49.9463 52.5449 50.0022 52.7356C50.1724 53.3581 50.3538 53.9779 50.5352 54.5948C50.7166 55.2146 50.8952 55.8344 51.0655 56.4513C51.2581 57.1664 51.4311 57.8955 51.5985 58.5994C51.7158 59.093 51.833 59.5838 51.9558 60.0745C52.1763 60.9635 52.3995 61.8356 52.62 62.705L52.6395 62.7779C52.6702 62.8817 52.6786 62.9826 52.687 63.0723C52.6898 63.1116 52.6954 63.1481 52.7009 63.1817C52.7428 63.3668 52.7902 63.7538 52.5753 64.0595C52.4749 64.1997 52.2795 64.3764 51.9083 64.4212C51.8609 64.4353 51.8134 64.4381 51.766 64.4381ZM48.5676 50.1696C49.0337 49.662 49.3714 49.1012 49.4077 48.7001C49.5165 47.7158 49.3128 46.9586 48.7602 46.3417L48.5676 50.1696Z" fill="#636732"></path>
<path d="M8.37421 64.3038C8.21234 64.3038 8.03373 64.2814 7.84116 64.2337L7.62626 64.1832V63.9617C7.62626 63.656 7.62347 63.3924 7.62068 63.1512C7.61789 62.7278 7.6123 62.3912 7.62626 62.0463V62.0155C7.66254 60.7423 7.70161 59.4243 7.7965 58.1343C7.84674 57.4724 7.93325 56.8134 8.01419 56.174C8.05605 55.8403 8.10071 55.5066 8.13978 55.1701C8.21513 54.5307 8.28211 53.8997 8.34909 53.2659C8.41608 52.6322 8.48306 51.9984 8.55841 51.359C8.66167 50.5738 8.78168 49.783 8.8989 49.0146C8.95751 48.6304 9.01611 48.249 9.07193 47.8648C9.09984 47.6432 9.11938 47.4077 9.13612 47.1721C9.15566 46.9366 9.17519 46.701 9.2031 46.4626C9.27846 45.9578 9.3566 45.4475 9.49614 44.9539C9.58266 44.6651 9.82268 44.4828 9.90082 44.4239C9.97897 44.365 10.0627 44.3594 10.1213 44.3594C10.2329 44.3594 11.2181 44.5108 11.3911 44.8137C11.4665 44.9455 11.5893 45.1642 11.6172 45.4194C11.8237 46.4879 11.9772 47.5956 12.1279 48.664C12.1726 49.023 12.2117 49.3791 12.2535 49.7353C12.3317 50.4336 12.4126 51.1543 12.527 51.8582C12.6331 52.5256 12.767 53.2014 12.8982 53.852C12.9987 54.3596 13.0992 54.8644 13.1885 55.3748C13.4117 56.6592 13.6434 58.0249 13.8332 59.3457C13.9197 59.9459 13.9922 60.546 14.062 61.1237C14.0983 61.435 14.1374 61.7434 14.1764 62.0547C14.2323 62.4081 14.2881 62.7502 14.3467 63.0923L14.3495 63.1148V63.1372C14.3495 63.154 14.3523 63.1708 14.3551 63.1905C14.3606 63.241 14.369 63.2942 14.369 63.3475C14.369 63.6392 14.249 63.8187 14.143 63.9224C14.0509 64.0318 13.9392 64.1243 13.8304 64.1832C13.755 64.2281 13.6741 64.2337 13.6015 64.2337C13.5931 64.2337 12.8452 64.2056 12.6247 64.0009C12.5745 63.9505 12.4042 63.757 12.3735 63.4513C12.3512 63.1933 12.3345 62.9409 12.3177 62.6857C12.2926 62.3183 12.2675 61.9397 12.2228 61.5724C12.1168 60.5067 11.9828 59.4691 11.8293 58.3306C11.2488 58.1904 10.7688 58.123 10.325 58.123C10.099 58.123 9.88408 58.1399 9.67476 58.1735C9.66918 58.252 9.66081 58.3306 9.65522 58.4091C9.64127 58.5717 9.62452 58.74 9.61615 58.9055V58.9363C9.57708 59.9122 9.5408 60.832 9.52405 61.7883C9.51568 62.0295 9.51568 62.2622 9.51568 62.5006C9.51568 62.7446 9.51568 62.9914 9.50731 63.241C9.46824 63.7598 9.16403 64.3038 8.37421 64.3038ZM11.4944 56.4068C11.1567 54.8644 10.953 53.2912 10.7576 51.7628C10.6962 51.2917 10.6348 50.8121 10.5678 50.3326L9.81151 56.3255L11.4944 56.4068Z" fill="#636732"></path>
<path d="M17.4988 64.4326C16.882 64.4073 16.4662 63.9362 16.4913 63.2856C16.5276 62.0265 16.5471 60.7337 16.5471 59.4493C16.5471 58.7342 16.5415 58.0163 16.5388 57.304C16.5332 56.5945 16.5304 55.8878 16.5304 55.1839C16.5304 54.1715 16.5304 53.1255 16.5499 52.0935C16.5667 51.5775 16.5946 51.0699 16.6197 50.5623C16.6532 49.9145 16.6895 49.2443 16.7006 48.5909C16.7146 47.7131 16.6811 46.8073 16.6476 45.9324L16.6225 45.2734C16.6225 44.1853 17.3481 44.0703 17.6607 44.0703C18.0765 44.0703 18.4086 44.2862 18.5454 44.6508L18.551 44.6676L18.5538 44.6845C18.5845 44.8079 18.5928 44.9144 18.604 45.0182C18.6068 45.063 18.6124 45.1079 18.618 45.1528C18.657 45.5959 18.5761 49.0452 18.5259 51.0615C18.5035 51.8103 18.5007 52.5759 18.498 53.3162C18.4952 53.8238 18.4952 54.3342 18.4868 54.8502C18.4784 55.4138 18.4589 55.9775 18.4393 56.5412C18.4198 57.102 18.4003 57.6629 18.3919 58.221C18.3919 58.4986 18.4114 58.7818 18.431 59.0791C18.4449 59.2866 18.4589 59.4969 18.4673 59.7101C18.4728 60.0242 18.4784 60.3298 18.484 60.6355C18.5007 61.5357 18.5203 62.4695 18.5063 63.4006C18.5063 63.8072 18.0765 64.4382 17.5072 64.4382L17.4988 64.4326Z" fill="#636732"></path>
<path d="M27.4122 64.4384C27.3676 64.4384 27.3229 64.4356 27.2783 64.43C26.762 64.3851 26.1619 63.942 26.0866 63.2101C26.0615 62.9942 26.0391 62.7754 26.0168 62.5567C25.9303 61.7546 25.8438 60.9274 25.7098 60.1253C25.5591 59.1718 25.3582 58.2044 25.1628 57.2649L25.0121 56.5358C24.9674 56.3535 24.9088 56.1628 24.8474 55.9609C24.786 55.7618 23.7841 49.6371 23.6222 48.9276C23.6334 49.1688 23.7618 51.4319 23.7618 51.6815C23.7618 53.1033 23.7618 54.5755 23.7813 56.0001C23.7925 56.5891 23.8288 57.1892 23.8622 57.7669C23.8902 58.2156 23.9153 58.6643 23.932 59.1158C23.946 59.5364 23.9543 59.9599 23.9655 60.3805C23.985 61.191 24.0074 62.0295 24.0436 62.8455C24.0548 63.1905 23.9571 63.4793 23.7534 63.6896C23.5636 63.8887 23.2901 63.9953 22.9859 63.9953C22.7682 63.9953 22.4138 63.8355 22.1933 63.5718C22.0342 63.3783 21.97 63.1624 22.0091 62.9409C22.1179 62.4137 22.0984 61.8752 22.0817 61.3059C22.0733 61.1657 22.0621 61.0171 22.051 60.8713C22.0203 60.4338 21.9868 59.9823 21.9868 59.5448C21.9784 59.1943 21.9644 58.3165 21.9533 57.4135C21.9365 56.3367 21.9226 55.2233 21.9114 54.9261C21.8835 53.9922 21.8863 53.0528 21.8891 52.1442C21.8891 51.8385 21.8919 51.53 21.8919 51.2216C21.8919 50.9748 21.8975 50.728 21.903 50.4812C21.9114 50.1251 21.9198 49.7577 21.9114 49.4015C21.9114 49.1407 21.8807 48.8856 21.8528 48.6388C21.8305 48.4369 21.8054 48.2265 21.797 48.0134C21.7719 47.5283 21.7635 47.0319 21.7551 46.5523C21.7523 46.3224 21.7468 46.0952 21.7412 45.8653C21.73 45.8092 21.73 45.7559 21.73 45.7054C21.73 45.683 21.73 45.6634 21.73 45.6465C21.6826 45.5119 21.5821 45.1053 21.7802 44.7464C21.8668 44.5865 22.051 44.3762 22.4249 44.2836C22.5645 44.2528 22.6901 44.2388 22.8101 44.2388C23.318 44.2388 23.6948 44.508 23.8734 44.9931C23.9515 45.2007 24.0353 45.411 24.1218 45.6185C24.3199 46.1065 24.5209 46.6084 24.6604 47.13C24.9004 47.9966 25.1126 48.8968 25.3163 49.7661C25.4196 50.2036 25.52 50.6411 25.6289 51.0757C25.7433 51.5553 26.614 56.7349 26.7899 57.4949C26.7759 56.4965 26.4996 52.7527 26.4996 51.7712C26.4801 50.2961 26.4996 48.8154 26.5192 47.388C26.5192 46.5327 26.5443 45.7783 26.5973 45.0857C26.6252 44.7351 26.8317 44.5248 26.9992 44.3566L27.0299 44.3257L27.069 44.3061C27.1331 44.2724 27.1973 44.2668 27.362 44.2668C28.0234 44.2668 28.0597 44.3033 28.1323 44.3762L28.1434 44.3874L28.1546 44.4014C28.2914 44.5781 28.4588 44.7968 28.4588 45.1053C28.4588 45.8232 28.4393 46.5523 28.4197 47.2562C28.4002 47.9573 28.3807 48.6808 28.3807 49.3903C28.3611 50.8542 28.3611 52.3265 28.3807 53.7679C28.3807 54.3203 28.4058 54.884 28.4309 55.4281C28.4504 55.8459 28.4672 56.2609 28.4756 56.6788V63.1792C28.4811 64.0458 27.9285 64.4384 27.4122 64.4384Z" fill="#636732"></path>
<path d="M32.1563 64.4384C31.919 64.4384 31.7153 64.3543 31.5646 64.1917C31.3441 63.9561 31.2827 63.6055 31.2995 63.356C31.3218 62.9914 31.3497 62.6212 31.3804 62.2539C31.4223 61.7098 31.4669 61.1461 31.4893 60.5993C31.5004 60.2628 31.4865 59.915 31.4725 59.5757C31.4613 59.3149 31.453 59.0569 31.453 58.8017C31.453 58.4259 31.4613 58.0502 31.4725 57.6744C31.4809 57.3098 31.492 56.9481 31.492 56.5919C31.492 56.3003 31.4837 56.0086 31.4781 55.717C31.4613 55.0635 31.4446 54.3877 31.5116 53.7231C31.5953 53.0052 31.5786 52.2732 31.5618 51.5665C31.5479 51.0141 31.5339 50.4392 31.5674 49.8671C31.5925 49.4577 31.6204 49.0482 31.6483 48.6388C31.7014 47.8452 31.7572 47.0235 31.7963 46.2159C31.8074 46.0588 31.7879 45.8906 31.7683 45.7139C31.7572 45.6129 31.746 45.512 31.7404 45.411C31.679 44.8165 32.0418 44.365 32.6865 44.2416C32.8149 44.2248 32.9321 44.1995 33.0521 44.1743C33.228 44.1379 33.4094 44.0986 33.5936 44.0846C33.8168 44.0762 34.4141 44.0649 35.0393 44.0649C35.5723 44.0649 36.2589 44.0734 36.5156 44.107C36.9538 44.1575 37.4031 44.6006 37.4589 45.0352C37.5036 45.3045 37.4422 45.5625 37.2775 45.77C37.0515 46.056 36.6859 46.1738 36.4403 46.1878C36.4235 46.1906 36.3845 46.1934 36.3454 46.1934C36.2812 46.1934 36.2198 46.1878 36.1556 46.1794C36.1137 46.1738 36.0691 46.1682 36.0272 46.1682C35.9602 46.1682 35.9016 46.1626 35.8402 46.157C35.7956 46.1542 35.7537 46.1486 35.7063 46.1486C35.5751 46.1401 35.1034 46.1345 34.5369 46.1345C34.1741 46.1345 33.8503 46.1373 33.6354 46.1401L33.4512 50.428C33.6717 50.4392 33.9983 50.4532 34.2606 50.4616C34.936 50.4869 35.2653 50.5037 35.3769 50.5233C35.5332 50.543 35.7063 50.5654 35.8737 50.6383C36.2812 50.843 36.4654 51.1992 36.3984 51.6254C36.3231 52.1526 35.9407 52.4695 35.3742 52.4695C35.2179 52.4695 35.0839 52.4443 34.9974 52.4247L34.9918 52.4219C34.8718 52.405 34.255 52.3966 33.881 52.391C33.694 52.3882 33.5545 52.3854 33.4485 52.3826C33.4317 52.8257 33.4122 53.266 33.3926 53.7062C33.3675 54.2475 33.3452 54.7915 33.3257 55.3384C33.3173 55.5403 33.3033 55.7394 33.2894 55.9413C33.2698 56.2301 33.2475 56.5274 33.2475 56.8163C33.2559 57.1696 33.281 57.5454 33.3033 57.9071C33.3284 58.2885 33.3508 58.6839 33.3619 59.0765C33.3759 59.9122 33.3591 60.7563 33.3396 61.5724C33.334 61.85 33.3284 62.1249 33.3229 62.4025V62.5764C33.3257 62.8876 33.3284 63.2073 33.2587 63.5242C33.1861 63.914 32.8289 64.2954 32.4326 64.402C32.3237 64.4272 32.2372 64.4384 32.1563 64.4384Z" fill="#636732"></path>
<path d="M41.5404 64.4354C40.8036 64.4354 40.0724 64.0175 39.7179 63.395C39.5477 63.1089 39.4137 62.7472 39.3439 62.3742C39.2798 62.0377 39.2212 61.6983 39.1542 61.3282C39.0649 60.8206 38.9644 60.2597 38.8332 59.5755C38.8248 59.5053 38.6965 58.378 38.6574 57.7891C38.582 56.5496 38.543 55.2876 38.543 54.0397C38.543 52.7862 38.5876 51.5999 38.6769 50.5118C38.7327 49.7771 38.8751 49.0452 39.0425 48.2319C39.1653 47.5897 39.3216 46.8466 39.5868 46.1511C39.8044 45.551 40.1784 44.9985 40.5105 44.5274C40.7254 44.2245 41.1273 44.0591 41.6464 44.0591C42.1432 44.0591 42.64 44.2161 42.8828 44.4461C43.6279 45.0995 44.0131 45.8567 44.0494 46.7512C44.0661 47.0233 44.1136 47.3009 44.1638 47.5953C44.2224 47.9375 44.2838 48.2936 44.295 48.661C44.3201 49.3649 44.3117 50.0772 44.3033 50.767C44.2978 51.1148 44.295 51.4625 44.295 51.8103C44.295 52.4384 44.295 53.089 44.2754 53.7424C44.2168 54.9175 44.1415 56.1233 44.0661 57.2563L44.0242 57.8564C43.9656 58.7005 43.907 59.5755 43.7982 60.4336C43.7145 61.1571 43.5442 61.8694 43.3768 62.5593L43.2986 62.8818C43.1116 63.7175 42.5814 64.2727 41.8446 64.4073C41.7497 64.4269 41.6464 64.4354 41.5404 64.4354ZM40.3905 56.7795C40.4938 57.4694 40.5943 58.1537 40.6947 58.8351C40.8119 59.6371 40.9292 60.4336 41.0492 61.2328C41.1162 61.6198 41.2027 62.0208 41.3729 62.3153C41.3813 62.3265 41.4036 62.3489 41.4371 62.3742C41.4427 62.3658 41.4455 62.3574 41.4511 62.3489C41.4957 62.2396 41.5292 62.1246 41.5627 61.99L41.5655 61.976L41.5711 61.9619C41.6213 61.8273 41.6548 61.6899 41.6911 61.5441C41.9562 60.6635 42.0288 59.7746 42.0846 58.8632C42.1125 58.5098 42.1348 58.1565 42.1544 57.8031C42.1879 57.2198 42.2241 56.6169 42.2939 56.028C42.3693 55.296 42.3665 54.5305 42.3637 53.7901C42.3637 53.448 42.3609 53.1059 42.3665 52.7609C42.372 52.4553 42.3804 52.1496 42.3888 51.8439C42.4083 51.1008 42.4307 50.3296 42.4027 49.578C42.3916 49.1181 42.3274 48.647 42.266 48.1927C42.2158 47.8281 42.1655 47.4495 42.1376 47.0737C42.1209 46.6447 42.012 46.3895 41.7636 46.1848C41.7246 46.1455 41.6994 46.1203 41.6687 46.0978C41.666 46.0978 41.6604 46.0978 41.6576 46.0978C41.2752 46.4876 41.1887 46.9588 41.0715 47.6038L41.0603 47.6598C40.7506 49.463 40.5412 51.0895 40.4184 52.6207C40.3515 53.6303 40.3626 54.6651 40.3738 55.6634C40.3849 56.0336 40.3905 56.4066 40.3905 56.7795Z" fill="#636732"></path>
<path d="M59.16 64.4326C58.7944 64.4326 57.3906 64.3765 57.0138 64.3372C57.0138 64.3372 56.7348 64.2868 56.6761 64.2783C56.4194 64.2587 56.2268 64.2391 56.0761 64.1942C55.5542 64.0848 55.264 63.7483 55.2109 63.1706C55.2109 62.9884 55.2109 62.792 55.2305 62.5144C55.2668 61.6703 55.2863 60.8094 55.3058 59.9793C55.3142 59.6203 55.3282 59.267 55.3421 58.9137C55.3616 58.4145 55.3812 57.8957 55.3812 57.3937C55.3896 56.8356 55.3868 56.2804 55.384 55.7251C55.3812 54.996 55.3784 54.2416 55.4007 53.4985C55.4091 52.8815 55.4398 52.2478 55.4677 51.6364C55.4956 51.0195 55.5235 50.3801 55.5347 49.7519C55.5458 48.9442 55.5375 48.1226 55.5291 47.3261C55.5235 46.7849 55.5179 46.2409 55.5179 45.6996C55.5179 45.6688 55.5096 45.6323 55.504 45.5987C55.4928 45.5342 55.4817 45.4725 55.4817 45.4136C55.4649 45.2453 55.4677 44.9397 55.6519 44.6957C55.9059 44.4152 56.3133 44.132 56.7515 44.1096C57.1059 44.0787 57.7451 44.0759 58.3228 44.0759H59.174C59.4391 44.0759 59.6735 44.0759 59.8438 44.0703C60.5415 44.0703 60.9657 44.4349 60.9825 45.0462C60.9825 45.6912 60.5248 46.1343 59.8689 46.1343H57.4074V49.9145C57.5329 49.9089 57.6781 49.9033 57.8344 49.8949C58.2893 49.8753 58.9116 49.85 59.0847 49.808C59.174 49.7884 59.2577 49.7799 59.3386 49.7799C59.8326 49.7799 60.2261 50.1137 60.2959 50.5932C60.3322 50.8512 60.2931 51.2186 60.0698 51.485C59.9498 51.6252 59.7294 51.7991 59.3442 51.8103C58.9814 51.8271 57.9209 51.8551 57.3432 51.8636C57.3348 52.3739 57.3208 52.8843 57.3097 53.3947C57.2957 53.992 57.2818 54.5922 57.2706 55.1895C57.2511 56.1402 57.2371 57.0908 57.2232 58.0415C57.2092 58.995 57.1953 59.9513 57.1757 60.9047V62.2817C57.8232 62.3069 59.0065 62.4079 59.4056 62.5116C59.6987 62.5761 59.8968 62.8537 59.961 62.9435L59.9861 62.9771L60.0001 63.0164C60.0112 63.0472 60.0168 63.0641 60.0447 63.1033L60.0922 63.1734V63.2576C60.0922 63.266 59.9498 64.0933 59.7405 64.2335L59.7266 64.2447L59.6735 64.2727C59.5675 64.3288 59.3889 64.4326 59.16 64.4326Z" fill="#636732"></path>
<path d="M65.3108 64.4381C65.1349 64.4381 64.9535 64.4156 64.7693 64.3679C64.4707 64.281 64.2753 64.124 64.0856 63.9725C64.0269 63.9249 63.9656 63.8772 63.8986 63.8295C63.1004 63.2518 62.8269 62.4189 62.6148 61.6169C62.5645 61.4094 62.5338 61.2047 62.5031 61.0055C62.4752 60.812 62.4473 60.6298 62.4054 60.4531C62.3385 60.1334 62.3831 59.8446 62.5282 59.6258C62.6259 59.4828 62.8157 59.2977 63.1757 59.2332C63.2483 59.222 63.3153 59.2164 63.3767 59.2164C63.9683 59.2164 64.2418 59.6931 64.2977 60.1026C64.3228 60.2512 64.3451 60.411 64.3674 60.5737C64.4065 60.8709 64.4484 61.1766 64.5209 61.4627C64.613 61.8973 64.8865 62.2451 65.3359 62.5059C65.3777 62.5059 65.4782 62.4554 65.6233 62.2703C66.1229 61.6365 66.2373 60.8541 66.2848 60.1026C66.3992 58.6359 66.3322 57.2197 66.081 55.8876C66.028 55.6353 65.9387 55.3744 65.8187 55.1164C65.7712 55.0099 65.7266 54.9089 65.6819 54.8108C65.5898 54.6061 65.4922 54.3957 65.414 54.1826C65.1796 53.6021 64.7554 53.0721 64.3423 52.5617C64.2223 52.4131 64.1051 52.2673 63.9935 52.1214C63.4576 51.4288 62.8018 50.4865 62.5031 49.3339C62.425 49.0507 62.4641 48.7787 62.5003 48.5992C62.531 48.459 62.5729 48.2627 62.5924 48.0888C62.6287 47.8588 62.6566 47.6373 62.6873 47.4129C62.7599 46.8801 62.8352 46.3305 62.958 45.8061C63.1534 45.0882 63.4269 44.603 63.7981 44.317C64.0102 44.1543 64.3005 44.0674 64.6409 44.0674C64.9563 44.0674 65.308 44.1431 65.5536 44.2665C66.3852 44.6451 66.8681 45.4107 66.9406 46.4791C66.9434 46.4959 66.9518 46.538 66.9769 46.6053C67.0327 46.7764 67.069 46.911 67.0885 47.026C67.1332 47.2447 67.1332 47.4943 67.0857 47.7046C66.9909 48.1028 66.6057 48.2767 66.2652 48.2767C66.0308 48.2767 65.8215 48.1982 65.6987 48.0608C65.5424 47.8504 65.4754 47.6681 65.414 47.4831C65.3414 47.3148 65.2801 47.1269 65.2187 46.9474C65.1907 46.8605 65.1628 46.7764 65.1321 46.6894C65.0596 46.4539 64.9814 46.2548 64.9005 46.0921C64.7498 46.2772 64.6633 46.4819 64.6074 46.7792C64.5823 46.9194 64.5684 47.0652 64.5544 47.2195C64.5405 47.3793 64.5237 47.5476 64.493 47.713C64.44 48.1056 64.4037 48.5207 64.3842 48.9301C64.3563 49.2722 64.4874 49.5386 64.7554 49.9425C64.7972 50.0042 64.8475 50.0743 64.8949 50.1472C64.9424 50.2173 64.987 50.2874 65.0345 50.3519C65.2354 50.6492 65.4503 50.938 65.6568 51.2156C65.8243 51.4428 65.9945 51.6671 66.1536 51.8971C66.5276 52.4243 66.9239 52.9964 67.2365 53.6498C67.9593 55.2146 68.2607 56.9224 68.1547 58.8715C68.1379 59.1323 68.1407 59.4043 68.1435 59.6679C68.1463 59.9932 68.1491 60.3297 68.1156 60.655C68.0319 61.3757 67.9063 62.4554 67.2225 63.3163C66.642 64.0707 66.0168 64.4381 65.3108 64.4381Z" fill="#636732"></path>
<path d="M73.1102 64.4328C72.5241 64.4328 72.1753 63.9028 72.1753 63.3896C72.1948 62.7755 72.1948 62.1697 72.1948 61.5808C72.2144 59.9655 72.2339 58.2969 72.2144 56.634C72.2032 55.7618 72.153 54.87 72.1055 54.0063C72.0748 53.4763 72.0469 52.9435 72.0246 52.4134C71.9883 51.6198 71.9492 50.7981 71.9492 49.9821C71.9492 49.4296 71.9576 48.8744 71.9688 48.3163C71.9771 47.7554 71.9883 47.1946 71.9883 46.6309C71.9883 46.443 71.9715 46.2355 71.9353 45.9999C71.5585 45.9803 70.9445 45.9803 70.5845 45.9803C69.9175 45.9663 69.5239 45.8457 69.2951 45.5877C69.1388 45.411 69.0718 45.1755 69.0969 44.8922C69.1862 44.2949 71.6115 44.1042 71.6366 44.1042C71.8208 44.0986 72.0162 44.0958 72.2144 44.0958C72.4209 44.0958 72.6302 44.0986 72.8228 44.1014C72.9874 44.1042 73.1409 44.1042 73.2749 44.1042C73.6935 44.1042 74.5615 44.1042 75.1448 44.0677C75.1978 44.0649 75.2508 44.0649 75.3066 44.0649C76.5095 44.0649 76.6658 44.7492 76.677 45.0437C76.6937 45.3017 76.6184 45.5372 76.4509 45.7167C76.2053 45.9803 75.7811 46.1149 75.1894 46.1149C74.9662 46.1065 74.6759 46.1009 74.394 46.0953C74.2294 46.0925 74.0703 46.0897 73.9335 46.0869C73.9335 46.5832 73.9307 47.074 73.9307 47.5647C73.928 48.7033 73.9224 49.8783 73.9363 51.0309C73.9363 51.8414 73.9698 52.6602 74.0005 53.451C74.0117 53.7034 74.02 53.9558 74.0312 54.2054C74.0452 54.5027 74.0591 54.7999 74.0731 55.0972C74.101 55.6777 74.1317 56.2778 74.1456 56.8751C74.168 57.8679 74.1708 58.883 74.1735 59.8646C74.1763 60.5348 74.1763 61.2022 74.1847 61.8669C74.1847 62.0884 74.1959 62.3015 74.2042 62.5119C74.2182 62.7951 74.2322 63.0895 74.221 63.384C74.1959 63.8131 73.8247 64.2786 73.4284 64.388C73.3223 64.416 73.2135 64.4328 73.1102 64.4328Z" fill="#636732"></path>
<path d="M50.4312 23.2682C48.6936 20.1898 55.2238 18.1333 58.7483 17.4803C58.778 17.4748 58.8071 17.4723 58.8374 17.4723H60.5478C60.589 17.4723 60.63 17.4672 60.6699 17.4572L74.3325 14.0176C74.3924 14.0025 74.4491 13.9764 74.4995 13.9407L79.7359 10.23C79.8266 10.1657 79.9361 10.1335 80.0471 10.1384L97.3243 10.9036L111.02 12.053C111.098 12.0594 111.172 12.0837 111.238 12.1239L121.316 18.2451L130.268 24.1008C130.528 24.2711 130.572 24.6352 130.358 24.8618L124.736 30.8386C124.641 30.939 124.509 30.996 124.371 30.996H117.495C117.38 30.996 117.269 31.0355 117.18 31.108L111.189 35.9769C111.155 36.0049 111.117 36.0282 111.077 36.0461L93.9165 43.6462C93.7733 43.7096 93.6681 43.8365 93.6323 43.9889L91.5988 52.6348C91.5457 52.8607 91.3441 53.0203 91.1121 53.0203H89.3675C89.1318 53.0203 88.9282 52.8558 88.8787 52.6254L86.1095 39.7476C86.0756 39.5901 85.9678 39.4585 85.82 39.3942L78.1057 36.0397C78.0742 36.026 78.0441 36.0091 78.016 35.9892L70.5545 30.7016C70.47 30.6418 70.3689 30.6096 70.2654 30.6096H63.5957C63.5441 30.6096 63.4949 30.6023 63.4458 30.5865C59.7818 29.4099 52.1646 26.339 50.4312 23.2682Z" fill="#FFF2E8"></path>
<path d="M135.145 21.5288C130.208 16.9942 130.529 16.5483 123.928 14.661C120.66 13.7272 120.227 9.18697 114.076 8.68499C110.097 8.35969 110.342 4.04943 105.19 4.15599C104.95 4.1616 103.611 3.05669 101.721 2.50424C100.75 2.221 98.5897 2.17894 97.9339 2.50705C94.3392 3.49417 94.2415 0.600098 90.8841 0.600098C87.7332 0.600098 86.0364 2.46778 83.8372 2.5407C77.8759 2.737 80.6528 5.35344 74.8812 5.23286C68.0045 5.08984 68.3004 9.13649 64.4155 10.0816C60.9045 10.9341 59.8161 13.3626 56.1796 13.6823C52.3365 14.0188 43.5258 16.7138 46.1296 22.7796C47.8767 26.8487 58.8672 34.1848 68.6129 31.5964C75.1017 39.5691 84.013 35.9375 85.174 41.8631C85.9275 45.719 86.1899 48.7421 86.4885 52.6626C86.7453 56.0194 85.0791 64.5081 83.0501 64.5221L97.8641 64.5501C95.8044 64.5501 94.9644 59.0593 94.903 55.6408C94.8332 51.8241 93.7783 50.1695 94.5262 46.336C95.397 41.8827 106.516 42.6287 119.298 30.7579C132.234 32.5751 138.974 25.0483 135.145 21.5288ZM54.5665 24.751C51.8007 25.1801 51.3709 23.9266 50.489 22.4234C50.489 22.4234 52.1468 22.1037 53.3915 22.673C54.6306 23.2479 54.5665 24.751 54.5665 24.751ZM81.9254 18.3684C84.3172 19.3471 84.9089 20.8838 84.8865 25.0679C84.8865 25.0679 83.039 24.5239 81.931 22.8104C80.8202 21.0998 81.9254 18.3684 81.9254 18.3684ZM74.697 15.3537C76.592 16.1698 76.4944 17.844 76.4637 19.1283C76.4637 19.1283 75.3027 18.6796 74.7501 17.8327C74.1947 16.9886 74.697 15.3537 74.697 15.3537ZM69.8186 23.8116C68.3729 27.5273 63.8573 28.2004 61.9372 28.091C60.2124 27.9956 57.7174 26.7 58.1388 23.9602C59.7324 23.6657 60.2989 23.0376 61.4069 23.8845C61.1613 22.4206 61.9902 21.6242 62.8777 20.3791C64.5941 20.623 65.2583 20.5025 66.5337 21.7504C66.2714 20.5922 68.1217 20.1659 68.4092 19.0666C70 19.8659 70.4298 22.2383 69.8186 23.8116ZM75.1157 31.9301C70.5163 27.4516 73.5305 22.143 73.5305 22.143C73.5305 22.143 75.2357 22.3926 79.3969 26.4168C83.5581 30.441 84.9089 33.1472 84.9089 33.1472C84.9089 33.1472 79.6481 36.3441 75.1157 31.9301ZM86.5164 11.8062C86.5164 11.8062 88.5984 12.1568 89.0226 14.2993C89.4468 16.4418 88.3444 18.9012 88.3444 18.9012C84.9396 16.5427 87.1416 15.3453 86.5164 11.8062ZM88.671 49.0506L86.7508 26.7225L88.7742 26.3327L89.885 49.0506H88.671ZM120.163 18.3992C121.012 18.158 121.734 18.9993 121.734 18.9993C120.554 20.3707 119.692 19.8603 118.637 19.4929C118.634 19.4929 119.315 18.6404 120.163 18.3992ZM117.202 22.0392C116.209 23.0824 116.873 24.7174 114.805 25.1464C113.878 25.3399 111.919 24.479 110.563 23.4554C114.06 23.9125 114.908 21.1867 117.202 22.0392ZM107.08 15.6538C108.896 16.2791 110.56 15.536 111.562 14.0076C113.253 14.7956 113.987 16.812 113.2 18.5114C112.413 20.2108 110.409 20.9483 108.718 20.1575C107.029 19.3695 106.295 17.3532 107.08 15.6538ZM102.938 12.928C102.938 12.928 103.549 13.9179 103.488 14.8601C103.426 15.8024 101.827 16.596 101.827 16.596C100.878 14.9162 102.196 13.8646 102.938 12.928ZM94.7439 37.8641C94.8695 39.3756 92.7066 42.6623 91.9586 37.6538C91.4702 34.3979 93.5494 28.2929 94.6518 25.2754C95.7542 22.2608 92.5726 20.3286 92.8963 17.0083C93.2201 13.6879 98.8604 12.0838 98.5618 18.7245C98.453 21.1278 96.011 23.7947 95.4556 27.2693C94.903 30.7467 94.6211 36.3526 94.7439 37.8641ZM101.523 37.407C100.259 39.2747 96.9543 39.5495 97.0603 38.9662C97.211 38.1165 98.0176 38.2763 99.2874 34.9195C99.8903 33.3211 102.472 36.0076 101.523 37.407ZM98.0427 30.2615C98.2437 29.4567 100.588 22.2355 100.979 20.9091C101.492 19.1676 108.215 23.1189 107.269 24.4089C106.68 25.2109 102.296 31.3749 101.752 32.1208C101.409 32.5891 97.9311 30.7074 98.0427 30.2615ZM123.78 28.363C121.453 29.3221 120.082 27.99 118.729 28.607C116.686 29.5352 108.344 35.1271 105.902 35.1888C103.463 35.2477 103.055 33.1809 105.793 32.1965C108.377 31.2655 117.897 28.0742 118.595 26.4925C119.292 24.9109 120.322 22.3225 124.986 21.6999C127.378 21.383 127.514 21.5821 126.543 22.0785C125.661 22.53 123.49 23.6041 123.191 23.7891C122.298 24.3416 122.122 24.9361 123.135 24.5884C123.869 24.336 126.504 23.4274 127.347 23.0853C128.251 22.7207 128.477 23.032 127.428 23.7162C126.758 24.1537 125.019 25.0847 123.814 25.8615C122.34 26.8094 125.103 26.2738 128.491 24.6753C129.661 24.1257 127.146 26.9749 123.78 28.363Z" fill="#636732"></path>
<path d="M6.12737 75.6315C4.41656 75.6315 2.68622 75.5783 0.941918 75.4268H0.00976562V74.3051H0.992154L1.01727 74.3079C4.55331 74.622 7.90236 74.5126 11.4468 74.3976C13.4088 74.3331 15.4349 74.2658 17.4806 74.2827L26.7296 74.2686C26.844 74.2686 26.9585 74.2686 27.0757 74.2658C27.7204 74.221 28.3651 74.1705 29.0153 74.12C30.5224 74.0022 32.0797 73.8788 33.6203 73.8283C33.8408 73.8199 34.0612 73.8143 34.2845 73.8115C36.1907 73.862 38.0773 73.9573 39.8998 74.0471C43.6535 74.235 47.5356 74.4313 51.4317 74.235H51.4623L62.1626 74.2182C67.7666 74.2434 72.7735 74.2434 77.4705 74.221L78.1543 74.2182H78.1738C78.5729 74.2434 78.8213 74.249 79.4269 74.2097H79.4576L82.0978 74.1901C84.1212 74.2125 86.1529 74.1452 88.1205 74.0835C91.4109 73.977 94.8158 73.8676 98.19 74.1677L100.183 74.1621H100.199C107.285 74.507 114.461 74.3444 121.399 74.1901C127.472 74.0527 133.751 73.9097 140.003 74.106L144.934 74.0976L144.937 75.2193L139.986 75.2277C133.743 75.0342 127.48 75.1772 121.421 75.3119C114.469 75.4689 107.28 75.6315 100.158 75.2838L98.1397 75.2894L98.1146 75.2866C94.7991 74.9894 91.4221 75.0987 88.154 75.2053C86.1753 75.2698 84.1295 75.3343 82.095 75.3119L79.4772 75.3315C78.8799 75.3679 78.5813 75.3707 78.1152 75.3399L77.4705 75.3427C72.7679 75.3651 67.7583 75.3651 62.1542 75.3399L51.4568 75.3567C47.5272 75.5558 43.6172 75.3595 39.8356 75.1688C38.0187 75.0763 36.1404 74.9837 34.2733 74.9333C34.0836 74.9389 33.8659 74.9445 33.651 74.9501C32.1355 75.0006 30.5922 75.1212 29.0963 75.2389C28.4404 75.2894 27.7846 75.3427 27.1315 75.3876H27.1036C26.9752 75.3904 26.8496 75.3904 26.724 75.3904L17.4723 75.4044C15.4433 75.3876 13.4283 75.4577 11.4775 75.5194C9.72201 75.5755 7.93585 75.6315 6.12737 75.6315Z" fill="#A76E65"></path>
<path d="M10.3966 72.8322C8.38993 72.8322 6.37771 72.8041 4.36548 72.7256C4.13942 72.7088 3.93569 72.6919 3.72916 72.6751C2.83329 72.5994 1.93463 72.6078 0.982943 72.6162C0.664784 72.619 0.343833 72.6218 0.0117188 72.6218V71.5001C0.341042 71.5001 0.659202 71.4973 0.974571 71.4945C1.95417 71.4861 2.88074 71.4777 3.82685 71.559C4.02779 71.5758 4.22873 71.5926 4.42967 71.6067C9.74071 71.8086 15.1159 71.6768 20.3153 71.5478C23.3853 71.4721 26.5585 71.3935 29.7066 71.3851C29.9243 71.3851 30.142 71.3823 30.3737 71.3739C34.0492 71.2814 37.7388 71.3823 41.3055 71.4805C46.064 71.6123 50.9871 71.7469 55.8906 71.4188H55.9269L75.7784 71.3879C83.7575 71.1748 91.7004 71.1524 100.045 71.3206C100.497 71.329 100.947 71.3403 101.399 71.3487C101.622 71.3655 101.817 71.3823 102.013 71.4076C102.786 71.4188 103.556 71.458 104.301 71.4945C105.783 71.5702 107.181 71.6403 108.524 71.5001C108.708 71.4721 108.914 71.4412 109.124 71.4076L109.422 71.3599C112.054 70.9308 114.775 70.4849 117.561 70.9561C117.759 70.9617 117.96 70.9701 118.158 70.9785C118.596 70.9981 119.031 71.0149 119.467 71.0318C121.085 71.0935 122.76 71.1608 124.376 71.3178L127.962 71.3122L127.985 71.315C130.747 71.5506 133.642 71.458 136.441 71.3655C138.425 71.301 140.476 71.2337 142.436 71.2898L144.934 71.287L144.936 72.4087L142.422 72.4115C140.482 72.3582 138.448 72.4227 136.48 72.4872C133.658 72.5798 130.739 72.6723 127.918 72.4339L124.323 72.4396L124.295 72.4367C122.704 72.2797 121.038 72.2152 119.425 72.1535C118.987 72.1367 118.549 72.1199 118.11 72.1002C117.904 72.0918 117.697 72.0834 117.488 72.0778L117.41 72.0694C114.795 71.6179 112.155 72.0497 109.601 72.4676L109.302 72.5153C109.09 72.5489 108.878 72.5826 108.663 72.6134C107.212 72.7649 105.772 72.6919 104.245 72.6162C103.5 72.5798 102.73 72.5405 101.971 72.5293L101.912 72.5265C101.725 72.5041 101.538 72.4844 101.348 72.4704C100.924 72.462 100.475 72.4508 100.026 72.4424C91.6976 72.2741 83.7715 72.2965 75.7952 72.5097H75.29L55.9464 72.5377C50.9954 72.8714 46.0528 72.734 41.272 72.6022C37.7192 72.504 34.0464 72.4031 30.4099 72.4956C30.1727 72.5069 29.9411 72.5069 29.7094 72.5069C26.5725 72.5153 23.4048 72.5938 20.3405 72.6695C17.0779 72.7508 13.7456 72.8322 10.3966 72.8322Z" fill="#E29856"></path>
<path d="M132.212 70.244C129.003 70.244 125.782 70.0505 122.617 69.857C117.39 69.5401 112.453 69.2429 107.653 69.7504C102.353 70.3898 96.8604 70.0645 91.5466 69.7476C89.8385 69.6467 88.0719 69.5401 86.3611 69.4728C85.9648 69.4728 85.4373 69.5541 84.9713 69.627C84.5387 69.6944 84.1647 69.7532 83.8717 69.7532C68.5079 70.3141 52.9069 70.3141 37.5236 69.7532C32.9075 69.6411 28.1463 69.8065 23.5441 69.9664C16.7734 70.2019 9.77113 70.4459 2.9893 69.8149L0.00585938 69.8177V68.696L3.04512 68.6904L3.07024 68.6932C9.79067 69.3214 16.7651 69.0774 23.5078 68.8446C28.1267 68.6848 32.9019 68.5165 37.5599 68.6315C52.9236 69.1924 68.4967 69.1924 83.8549 68.6315C84.0838 68.6315 84.4326 68.5754 84.8038 68.5193C85.309 68.4408 85.8811 68.3511 86.3862 68.3511C88.1333 68.4212 89.9027 68.5249 91.6163 68.6287C96.8799 68.9428 102.322 69.2653 107.53 68.6371C112.431 68.1183 117.644 68.4352 122.684 68.7381C128.688 69.0998 134.894 69.4756 140.78 68.4941L140.87 68.4857L144.928 68.4801L144.93 69.6018L140.917 69.6074C138.059 70.0814 135.14 70.244 132.212 70.244Z" fill="#EFD7C5"></path>
<path d="M107.708 64.4361C107.449 64.4361 107.223 64.3408 107.053 64.1641C106.846 63.9482 106.737 63.6229 106.751 63.2667C106.787 62.2544 106.827 61.2055 106.846 60.1483C106.846 59.7417 106.835 59.3238 106.826 58.9088C106.813 58.3535 106.799 57.7786 106.81 57.215C106.81 56.7326 106.835 56.2363 106.86 55.7567C106.88 55.3978 106.896 55.0388 106.905 54.6827C106.913 54.5256 106.896 54.3658 106.88 54.1975C106.863 54.0545 106.849 53.9058 106.849 53.7544C106.843 53.258 106.835 52.7589 106.824 52.2597C106.799 50.9613 106.773 49.618 106.829 48.2972C106.857 47.4811 106.773 46.651 106.693 45.8518C106.667 45.6078 106.642 45.361 106.62 45.1171C106.595 44.9124 106.67 44.6712 106.829 44.4665C106.997 44.2533 107.223 44.1159 107.454 44.0879C107.538 44.0795 107.616 44.0767 107.692 44.0767C108.727 44.0767 109.684 44.7217 110.131 45.7172C110.192 45.8518 110.262 45.9752 110.329 46.0958C110.382 46.1939 110.438 46.2893 110.485 46.3902C110.658 46.6875 110.776 46.9595 110.845 47.2259C111.247 48.6702 111.535 49.8928 111.267 51.3118C111.063 52.3775 110.505 53.0674 109.933 53.5918C109.977 53.6226 110.019 53.6507 110.064 53.6703C110.675 53.9647 110.965 54.4415 111.13 54.7724C111.264 55.0584 111.364 55.3697 111.465 55.6698L111.526 55.8549C111.666 56.2727 111.825 56.8252 111.825 57.3916C111.844 58.174 111.8 58.92 111.688 59.6071C111.381 61.3766 110.329 62.6862 109.341 63.735C109.003 64.0968 108.501 64.2651 108.054 64.3856C107.934 64.4193 107.817 64.4361 107.708 64.4361ZM108.381 61.9431C108.682 61.7075 108.942 61.4551 109.115 61.1551C109.21 60.984 109.324 60.8101 109.442 60.6306C109.525 60.5016 109.612 60.3726 109.693 60.238C109.871 59.98 110 59.7276 110.078 59.4865C110.379 58.3535 110.265 57.1673 109.732 55.9698C109.444 55.3445 108.975 54.879 108.381 54.6153V61.9431ZM108.381 52.6916C109.349 52.1588 109.802 51.3567 109.726 50.2995C109.701 49.9714 109.62 49.6124 109.492 49.2338C109.45 49.0936 109.405 48.9618 109.363 48.83C109.274 48.5552 109.179 48.2747 109.115 47.9887C108.97 47.4334 108.724 46.9315 108.381 46.4884V52.6916Z" fill="#A76E65"></path>
<path d="M116.9 64.0595C116.272 64.0595 115.452 63.7454 115.03 63.0443C114.855 62.7639 114.715 62.4049 114.643 62.0404C114.578 61.7123 114.514 61.3785 114.447 61.0168C114.355 60.5204 114.252 59.968 114.115 59.2977C114.107 59.2276 113.973 58.1227 113.934 57.545C113.855 56.3279 113.816 55.0912 113.816 53.8657C113.816 52.6374 113.864 51.4736 113.956 50.408C114.015 49.6901 114.16 48.9694 114.333 48.1701C114.461 47.542 114.62 46.81 114.894 46.1258C115.12 45.5369 115.505 44.9928 115.848 44.5329C116.069 44.2385 116.479 44.0786 117.009 44.0786C117.431 44.0786 117.986 44.1964 118.273 44.4544C119.044 45.0966 119.443 45.8425 119.482 46.7231C119.499 46.9867 119.549 47.2587 119.599 47.5476C119.661 47.8841 119.725 48.2346 119.736 48.5936C119.761 49.2835 119.753 49.9817 119.744 50.6604C119.739 51.0025 119.736 51.3418 119.736 51.684C119.736 52.3009 119.736 52.9403 119.716 53.5769C119.658 54.7295 119.577 55.9101 119.501 57.0234L119.46 57.6123C119.401 58.4424 119.34 59.2977 119.228 60.139C119.141 60.8485 118.966 61.5468 118.793 62.2227L118.712 62.5395C118.519 63.3612 117.972 63.9081 117.216 64.0371C117.115 64.0511 117.009 64.0595 116.9 64.0595ZM115.706 56.5495C115.815 57.2253 115.918 57.8956 116.018 58.5658C116.138 59.351 116.258 60.1334 116.387 60.913C116.457 61.2888 116.546 61.6814 116.719 61.9675C116.727 61.9787 116.752 61.9983 116.772 62.0123C116.791 62.0011 116.817 61.9871 116.833 61.9731C116.875 61.8749 116.903 61.7712 116.937 61.6534L116.942 61.6365L116.948 61.6197C117.001 61.4879 117.034 61.3533 117.073 61.2103C117.347 60.3522 117.419 59.48 117.478 58.5854C117.509 58.2377 117.528 57.8928 117.551 57.5478C117.584 56.9757 117.62 56.384 117.696 55.8063C117.774 55.0912 117.771 54.3425 117.768 53.6162C117.768 53.2796 117.766 52.9431 117.771 52.6094C117.777 52.3093 117.785 52.0093 117.793 51.7092C117.816 50.9801 117.838 50.2257 117.81 49.4882C117.799 49.0395 117.732 48.5768 117.668 48.1309C117.615 47.7719 117.562 47.4018 117.537 47.0344C117.52 46.6193 117.408 46.3698 117.154 46.1706C117.107 46.1258 117.079 46.1005 117.04 46.0753C116.691 46.4595 116.532 46.9727 116.409 47.6093C116.091 49.376 115.873 50.9689 115.748 52.4692C115.678 53.4591 115.689 54.4715 115.7 55.4502C115.7 55.8176 115.706 56.1821 115.706 56.5495Z" fill="#A76E65"></path>
<path d="M127.41 64.4352C127.382 64.4352 127.351 64.4352 127.321 64.4324C126.827 64.4072 126.483 64.1127 126.38 63.6191L126.374 63.5911V63.5631C126.374 63.5378 126.372 63.5098 126.366 63.4845C126.36 63.4341 126.355 63.3864 126.355 63.3359C126.341 63.1957 125.981 60.6241 125.95 60.4979C125.816 61.0924 125.693 62.9321 125.579 63.521C125.476 64.0342 125.124 64.3371 124.638 64.3371C124.563 64.3371 124.488 64.3286 124.412 64.3146C123.991 64.2024 123.65 63.7902 123.623 63.3724C123.528 62.0796 123.45 60.7447 123.377 59.4519L123.36 59.1995C123.29 58.2264 123.218 57.2197 123.131 56.2381C123.095 55.7951 123.053 55.3492 123.011 54.9033C122.928 54.0003 122.841 53.0664 122.791 52.1522C122.749 51.5577 122.735 50.9576 122.724 50.3771C122.713 49.9172 122.704 49.4404 122.679 48.9721C122.623 47.6849 122.545 46.3949 122.473 45.147C122.406 44.7993 122.509 44.5244 122.802 44.2833C122.975 44.1206 123.165 44.0337 123.355 44.0337C123.801 44.0337 124.044 44.4964 124.119 44.7684C124.225 45.1358 124.334 45.5789 124.357 46.0472C124.396 46.667 124.412 47.2979 124.432 47.9065C124.451 48.5122 124.471 49.1404 124.507 49.7545C124.563 50.9436 124.636 52.1326 124.733 53.3889C124.812 54.6313 124.954 59.351 124.965 59.5108C125.063 59.2893 125.498 56.0867 125.738 55.9998C125.811 55.9773 125.816 55.9297 125.903 55.9297C126.199 55.9297 126.439 56.0811 126.581 56.2578C126.704 56.412 127.047 59.4743 127.128 59.6959C127.15 59.5136 127.672 53.7703 127.778 53.044C127.935 51.9391 128.063 50.7977 128.186 49.6956C128.225 49.3367 128.267 48.9777 128.308 48.616C128.359 48.1112 128.392 47.5812 128.423 47.0708C128.44 46.8016 128.456 46.5323 128.476 46.2659C128.49 46.1173 128.501 45.9771 128.509 45.8369C128.523 45.6153 128.537 45.3882 128.574 45.1582C128.604 44.903 129.026 44.3786 129.492 44.3786C129.603 44.3786 129.707 44.4067 129.804 44.4628C129.922 44.5413 130.435 44.9086 130.435 45.3349C130.455 45.8172 130.435 46.3332 130.377 46.8156C130.226 48.3019 130.033 49.7938 129.846 51.2352C129.757 52.0036 129.643 52.7832 129.536 53.5348C129.461 54.0564 129.386 54.578 129.316 55.1024C129.193 56.0503 129.054 57.1243 128.936 58.1647L128.878 58.6415C128.744 59.7604 128.615 60.8148 128.501 61.8973C128.445 62.3404 128.426 62.8059 128.445 63.2462C128.462 63.6135 128.359 63.9332 128.161 64.1436C128.038 64.2754 127.803 64.4352 127.41 64.4352Z" fill="#A76E65"></path>
<path d="M134.564 64.39C134.282 64.39 133.902 64.3788 133.696 64.3311C133.146 64.2049 132.844 63.7927 132.875 63.2066C132.892 62.7887 132.914 62.312 132.914 61.8296L132.92 61.5829C132.956 59.4992 132.992 57.3427 133.048 55.2142C133.057 54.6982 133.073 54.1738 133.093 53.6494C133.118 52.9539 133.143 52.2332 133.143 51.5265C133.143 50.5001 133.11 49.4569 133.079 48.4446C133.068 48.1024 133.037 47.0564 133.031 46.8741C133.015 46.3385 132.995 45.7833 133.009 45.2336C133.009 44.597 133.33 44.1595 133.869 44.0698C133.925 44.0614 133.969 44.0586 134.014 44.0586C134.388 44.0586 134.698 44.2942 134.84 44.6896C134.913 44.8606 134.913 45.0541 134.913 45.2224C134.952 46.9891 134.968 48.7923 134.988 50.5338C134.988 50.9993 134.993 51.462 134.996 51.9247C135.005 52.839 135.013 53.784 134.988 54.7151C134.98 55.3236 134.952 55.9377 134.924 56.5323C134.89 57.239 134.857 57.9681 134.857 58.686C134.857 59.4123 134.882 60.1527 134.907 60.8706C134.924 61.3529 134.94 61.8353 134.949 62.3176C135.54 62.298 136.777 62.2727 137.006 62.2727C137.346 62.2727 137.815 62.3428 138.094 62.6766C138.22 62.8252 138.354 63.086 138.287 63.4954C138.142 64.3648 134.929 64.39 134.564 64.39Z" fill="#A76E65"></path>
<path d="M142.135 64.4381C141.959 64.4381 141.778 64.4156 141.594 64.368C141.295 64.281 141.1 64.124 140.91 63.9725C140.851 63.9249 140.79 63.8772 140.723 63.8295C139.925 63.2518 139.651 62.4189 139.439 61.6169C139.389 61.4094 139.358 61.2047 139.327 61.0056C139.299 60.8121 139.272 60.6298 139.23 60.4531C139.163 60.1334 139.207 59.8446 139.352 59.6258C139.45 59.4828 139.64 59.2977 140 59.2332C140.073 59.222 140.139 59.2164 140.201 59.2164C140.793 59.2164 141.066 59.6931 141.122 60.1026C141.147 60.2512 141.169 60.411 141.192 60.5737C141.231 60.8709 141.273 61.1766 141.345 61.4627C141.437 61.8973 141.711 62.2451 142.16 62.5059C142.202 62.5059 142.302 62.4554 142.448 62.2703C142.947 61.6365 143.062 60.8541 143.109 60.1026C143.223 58.6359 143.156 57.2169 142.905 55.8876C142.852 55.6381 142.763 55.3745 142.643 55.1165C142.598 55.0127 142.554 54.9145 142.509 54.8164C142.414 54.6117 142.316 54.3986 142.238 54.1826C142.004 53.6021 141.58 53.0721 141.167 52.5617C141.047 52.4131 140.929 52.2673 140.818 52.1214C140.282 51.4288 139.626 50.4865 139.327 49.3339C139.249 49.0507 139.288 48.7787 139.325 48.5992C139.355 48.459 139.397 48.2627 139.417 48.0888C139.453 47.8588 139.481 47.6373 139.512 47.413C139.584 46.8801 139.659 46.3305 139.782 45.8061C139.978 45.0882 140.251 44.603 140.622 44.317C140.834 44.1543 141.125 44.0674 141.465 44.0674C141.781 44.0674 142.132 44.1431 142.378 44.2665C143.209 44.6451 143.692 45.4107 143.765 46.4791C143.765 46.4959 143.776 46.5352 143.801 46.6025C143.857 46.7736 143.893 46.9082 143.913 47.0231C143.957 47.2419 143.957 47.4915 143.91 47.7018C143.815 48.1 143.43 48.2739 143.089 48.2739C142.852 48.2739 142.646 48.1954 142.523 48.0579C142.367 47.8476 142.3 47.6653 142.238 47.4803C142.166 47.312 142.104 47.1241 142.043 46.9418C142.015 46.8549 141.987 46.7708 141.956 46.6838C141.884 46.4483 141.806 46.2492 141.725 46.0865C141.574 46.2716 141.487 46.4763 141.432 46.7736C141.407 46.9138 141.393 47.0596 141.379 47.2138C141.365 47.3737 141.348 47.542 141.317 47.7074C141.264 48.1 141.228 48.5123 141.208 48.9245C141.18 49.2666 141.312 49.533 141.58 49.9369C141.621 49.9985 141.672 50.0687 141.719 50.1416C141.767 50.2117 141.811 50.2818 141.859 50.3463C142.06 50.6463 142.275 50.9324 142.481 51.21C142.649 51.4372 142.816 51.6615 142.978 51.8887C143.352 52.4159 143.748 52.988 144.061 53.6414C144.784 55.2062 145.085 56.914 144.979 58.863C144.962 59.1238 144.965 59.3959 144.968 59.6595C144.971 59.9848 144.973 60.3213 144.94 60.6466C144.856 61.3673 144.73 62.447 144.047 63.3079C143.469 64.0707 142.844 64.4381 142.135 64.4381Z" fill="#A76E65"></path>
<path d="M1.84155 80.2967C2.00342 80.134 2.18204 80.0078 2.42763 80.0078C2.59509 80.0078 2.73184 80.0667 2.82952 80.1649C2.97185 80.3107 2.98581 80.507 2.98581 80.7257V86.842C2.98581 87.1 2.96906 87.1953 2.90766 87.3215C2.8351 87.4645 2.6816 87.5739 2.45275 87.5739C2.2239 87.5739 2.0704 87.4645 1.99784 87.3215C1.93365 87.1953 1.91969 87.1 1.91969 86.842V81.6343L1.1829 82.3747C1.00429 82.5541 0.926143 82.6102 0.811717 82.6439C0.655428 82.6859 0.482394 82.6383 0.345641 82.5009C0.208888 82.3634 0.167025 82.2008 0.208888 82.0438C0.239587 81.9288 0.298196 81.8447 0.476812 81.6652L1.84155 80.2967Z" fill="#69451C"></path>
<path d="M8.32031 86.8023V80.7449C8.32031 80.5767 8.32031 80.3775 8.48218 80.2149C8.64405 80.0522 8.84221 80.0522 9.00966 80.0522H11.1447C12.5987 80.0522 13.5281 81.0197 13.5281 82.321C13.5281 83.6222 12.5987 84.5813 11.1447 84.5813H9.45062V86.8051C9.45062 87.0827 9.44504 87.1725 9.36689 87.3211C9.28316 87.4725 9.11013 87.5791 8.88686 87.5791C8.6608 87.5791 8.49056 87.4753 8.40683 87.3211C8.32589 87.1697 8.32031 87.0799 8.32031 86.8023ZM9.45062 83.5689H11.0833C11.8787 83.5689 12.4006 83.1062 12.4006 82.3181C12.4006 81.5133 11.8787 81.0562 11.0833 81.0562H9.45062V83.5689Z" fill="#69451C"></path>
<path d="M17.182 82.1411C17.5755 82.1411 17.8574 82.214 18.1141 82.3879C18.2983 82.5085 18.4323 82.6655 18.4323 82.8702C18.4323 83.0217 18.3709 83.1647 18.276 83.26C18.1867 83.3498 18.0471 83.4059 17.9104 83.4059C17.8015 83.4059 17.6815 83.3694 17.4973 83.2628C17.3187 83.1619 17.1317 83.1058 16.9224 83.1058C16.3168 83.1058 15.8396 83.5573 15.8396 84.2976V86.8412C15.8396 87.0992 15.8228 87.1945 15.7614 87.3207C15.6888 87.4637 15.5353 87.5731 15.3065 87.5731C15.0776 87.5731 14.9241 87.4637 14.8516 87.3207C14.7902 87.1945 14.7734 87.0992 14.7734 86.8412V82.8955C14.7734 82.601 14.7958 82.5057 14.8683 82.3851C14.9576 82.2421 15.1307 82.1579 15.3065 82.1579C15.4795 82.1579 15.6414 82.2252 15.7391 82.3683C15.7977 82.4524 15.8228 82.5309 15.834 82.7581C16.1326 82.3879 16.6294 82.1411 17.182 82.1411Z" fill="#69451C"></path>
<path d="M19.4739 82.7721C19.82 82.4159 20.3363 82.1411 21.0591 82.1411C21.782 82.1411 22.2983 82.4131 22.6444 82.7721C23.1579 83.3077 23.2667 83.9695 23.2667 84.8697C23.2667 85.7699 23.1579 86.4318 22.6444 86.9674C22.2983 87.3235 21.782 87.5984 21.0591 87.5984C20.3363 87.5984 19.82 87.3264 19.4739 86.9674C18.9548 86.4318 18.8516 85.7699 18.8516 84.8697C18.8516 83.9695 18.9576 83.3077 19.4739 82.7721ZM20.2861 86.3224C20.4842 86.5271 20.7354 86.6281 21.0591 86.6281C21.3829 86.6281 21.6341 86.5271 21.8322 86.3224C22.1504 86.0027 22.1978 85.4502 22.1978 84.8669C22.1978 84.2836 22.1504 83.7368 21.8322 83.4115C21.6341 83.2068 21.3829 83.1058 21.0591 83.1058C20.7354 83.1058 20.4842 83.2068 20.2861 83.4115C19.9679 83.7368 19.9205 84.2836 19.9205 84.8669C19.9205 85.4502 19.9651 86.0027 20.2861 86.3224Z" fill="#69451C"></path>
<path d="M28.7971 86.8381C28.7971 87.1325 28.7748 87.2279 28.7022 87.3485C28.6129 87.4915 28.4399 87.5756 28.2641 87.5756C28.091 87.5756 27.9292 87.5083 27.8287 87.3653C27.7701 87.2868 27.745 87.2082 27.7338 86.9867C27.3403 87.455 26.9021 87.5952 26.3467 87.5952C25.8137 87.5952 25.342 87.4158 25.049 87.1213C24.5355 86.5969 24.4629 85.7444 24.4629 84.861C24.4629 83.9889 24.5355 83.1364 25.049 82.6119C25.342 82.3175 25.8025 82.138 26.3356 82.138C26.8993 82.138 27.3403 82.2754 27.7254 82.7381V80.7358C27.7254 80.4778 27.7422 80.3825 27.8036 80.2563C27.8761 80.1133 28.0268 80.0039 28.2585 80.0039C28.4873 80.0039 28.6408 80.1133 28.7134 80.2563C28.7748 80.3825 28.7915 80.4778 28.7915 80.7358V86.8381H28.7971ZM26.6342 86.6277C27.6026 86.6277 27.7366 85.8145 27.7366 84.8666C27.7366 83.9188 27.5998 83.1055 26.6342 83.1055C25.6713 83.1055 25.5374 83.9188 25.5374 84.8666C25.5374 85.8145 25.6713 86.6277 26.6342 86.6277Z" fill="#69451C"></path>
<path d="M33.6685 82.8931C33.6685 82.6351 33.6852 82.5425 33.7466 82.4135C33.8192 82.2705 33.9727 82.1611 34.2016 82.1611C34.4304 82.1611 34.5839 82.2705 34.6565 82.4135C34.7179 82.5397 34.7346 82.6351 34.7346 82.8931V86.8388C34.7346 87.1332 34.7123 87.2286 34.6397 87.3492C34.5504 87.4922 34.3774 87.5763 34.2016 87.5763C34.0285 87.5763 33.8666 87.509 33.769 87.366C33.7159 87.2875 33.6852 87.2089 33.6741 87.0126C33.3085 87.4024 32.8061 87.5959 32.2786 87.5959C31.7344 87.5959 31.2851 87.4165 30.9725 87.1136C30.565 86.7154 30.4395 86.2106 30.4395 85.6105V82.8931C30.4395 82.6351 30.4562 82.5425 30.5176 82.4135C30.5902 82.2705 30.7437 82.1611 30.9725 82.1611C31.2014 82.1611 31.3549 82.2705 31.4274 82.4135C31.4888 82.5397 31.5056 82.6351 31.5056 82.8931V85.4534C31.5056 86.2835 31.9772 86.6312 32.5717 86.6312C33.1689 86.6312 33.6685 86.2751 33.6685 85.4534V82.8931Z" fill="#69451C"></path>
<path d="M38.509 82.1411C38.9862 82.1411 39.3155 82.2449 39.67 82.4776C39.9463 82.6571 40.1891 82.845 40.1891 83.1198C40.1891 83.2516 40.1305 83.3722 40.0384 83.4704C39.9602 83.5489 39.8346 83.6078 39.709 83.6078C39.5667 83.6078 39.4634 83.5489 39.2848 83.4031C39.0169 83.1871 38.8048 83.1086 38.5118 83.1086C38.0931 83.1086 37.775 83.2601 37.5433 83.5657C37.3145 83.8714 37.2252 84.25 37.2252 84.8697C37.2252 85.4839 37.3145 85.8681 37.5433 86.1682C37.775 86.4794 38.0931 86.6309 38.5118 86.6309C38.8048 86.6309 39.0197 86.5411 39.2848 86.3308C39.4634 86.1878 39.5667 86.1261 39.709 86.1261C39.8346 86.1261 39.9602 86.1878 40.0384 86.2691C40.1333 86.3701 40.1891 86.485 40.1891 86.6197C40.1891 86.8889 39.9379 87.088 39.67 87.2618C39.3351 87.4778 38.9946 87.5984 38.509 87.5984C37.3061 87.5984 36.1562 86.8692 36.1562 84.8726C36.1562 82.8759 37.3061 82.1411 38.509 82.1411Z" fill="#69451C"></path>
<path d="M41.71 83.0222H41.4644C41.2663 83.0222 41.1881 83.011 41.0932 82.9605C40.9732 82.8932 40.9062 82.7727 40.9062 82.6128C40.9062 82.4558 40.9732 82.3352 41.0932 82.2651C41.1881 82.2118 41.2663 82.2034 41.4644 82.2034H41.71V81.3677C41.71 81.1097 41.7268 81.0143 41.7882 80.8881C41.8607 80.7451 42.0142 80.6357 42.2431 80.6357C42.4719 80.6357 42.6254 80.7451 42.698 80.8881C42.7594 81.0143 42.7761 81.1097 42.7761 81.3677V82.2034H43.3511C43.5492 82.2034 43.6274 82.2146 43.7222 82.2651C43.8423 82.3324 43.9092 82.453 43.9092 82.6128C43.9092 82.7698 43.8423 82.8904 43.7222 82.9605C43.6274 83.0138 43.5492 83.0222 43.3511 83.0222H42.7761V86.006C42.7761 86.3734 42.9213 86.609 43.3148 86.6202C43.4878 86.6258 43.6078 86.6398 43.7027 86.6931C43.8283 86.7604 43.9176 86.8922 43.9176 87.0717C43.9176 87.2512 43.8283 87.3774 43.7027 87.4447C43.6078 87.4979 43.4683 87.5288 43.2534 87.5288H43.1473C42.1482 87.5288 41.71 86.8361 41.71 86.0509V83.0222Z" fill="#69451C"></path>
<path d="M51.3551 85.4306C51.3551 85.0941 51.2714 84.8305 51.062 84.6538C50.8751 84.4856 50.6239 84.3902 50.2527 84.3398L49.368 84.2136C48.7679 84.1238 48.3102 83.9359 47.9614 83.6106C47.5902 83.2685 47.4116 82.7862 47.4116 82.1748C47.4116 80.8708 48.3521 79.9902 49.901 79.9902C50.6071 79.9902 51.0369 80.1052 51.6537 80.4305C51.9161 80.5679 52.1086 80.7614 52.1086 81.0026C52.1086 81.1232 52.0668 81.2438 51.9775 81.3503C51.8937 81.4513 51.7849 81.513 51.6314 81.513C51.5114 81.513 51.3272 81.4457 51.1765 81.3503C50.7327 81.0783 50.3811 80.983 49.8592 80.983C48.9801 80.983 48.5112 81.4625 48.5112 82.144C48.5112 82.416 48.5838 82.6684 48.7819 82.8366C48.9689 83.0049 49.1894 83.1087 49.5968 83.1732L50.4843 83.3106C51.1653 83.4171 51.5421 83.5742 51.8658 83.8686C52.2621 84.236 52.4714 84.752 52.4714 85.4026C52.4714 86.7795 51.3635 87.5984 49.795 87.5984C48.9019 87.5984 48.3409 87.4245 47.7911 87.0936C47.4032 86.8637 47.2637 86.7038 47.2637 86.4318C47.2637 86.3056 47.3223 86.1598 47.42 86.0588C47.5148 85.9635 47.6293 85.9214 47.7493 85.9214C47.8944 85.9214 48.0256 85.9691 48.2293 86.1093C48.7317 86.457 49.1698 86.5888 49.8145 86.5888C50.7997 86.586 51.3551 86.1654 51.3551 85.4306Z" fill="#69451C"></path>
<path d="M54.2356 82.7721C54.5817 82.4159 55.098 82.1411 55.8209 82.1411C56.5409 82.1411 57.06 82.4131 57.4061 82.7721C57.9196 83.3077 58.0284 83.9695 58.0284 84.8697C58.0284 85.7699 57.9196 86.4318 57.4061 86.9674C57.06 87.3235 56.5437 87.5984 55.8209 87.5984C55.098 87.5984 54.5817 87.3264 54.2356 86.9674C53.7165 86.4318 53.6133 85.7699 53.6133 84.8697C53.6133 83.9695 53.7165 83.3077 54.2356 82.7721ZM55.045 86.3224C55.2432 86.5271 55.4943 86.6281 55.8181 86.6281C56.1418 86.6281 56.393 86.5271 56.5911 86.3224C56.9093 86.0027 56.9568 85.4502 56.9568 84.8669C56.9568 84.2836 56.9093 83.7368 56.5911 83.4115C56.393 83.2068 56.1418 83.1058 55.8181 83.1058C55.4943 83.1058 55.2432 83.2068 55.045 83.4115C54.7268 83.7368 54.6794 84.2836 54.6794 84.8669C54.6794 85.4502 54.7268 86.0027 55.045 86.3224Z" fill="#69451C"></path>
<path d="M59.4453 80.728C59.4453 80.47 59.4621 80.3775 59.5235 80.2485C59.596 80.1055 59.7495 79.9961 59.9784 79.9961C60.21 79.9961 60.3607 80.1055 60.4333 80.2485C60.4975 80.3747 60.5114 80.47 60.5114 80.728V86.0086C60.5114 86.376 60.6594 86.6115 61.0501 86.6227C61.2231 86.6283 61.3431 86.6424 61.438 86.6957C61.5636 86.763 61.6529 86.8948 61.6529 87.0742C61.6529 87.2537 61.5636 87.3799 61.438 87.4472C61.3431 87.5005 61.2036 87.5313 60.9887 87.5313H60.8854C59.8863 87.5313 59.4481 86.8387 59.4481 86.0535V80.728H59.4453Z" fill="#69451C"></path>
<path d="M66.6529 86.8381C66.6529 87.1325 66.6305 87.2279 66.558 87.3485C66.4687 87.4915 66.2956 87.5756 66.1198 87.5756C65.9468 87.5756 65.7849 87.5083 65.6872 87.3653C65.6286 87.2868 65.6035 87.2082 65.5923 86.9867C65.2016 87.455 64.7607 87.5952 64.2081 87.5952C63.675 87.5952 63.2033 87.4158 62.9103 87.1213C62.3968 86.5969 62.3242 85.7444 62.3242 84.861C62.3242 83.9889 62.3968 83.1364 62.9103 82.6119C63.2033 82.3175 63.6638 82.138 64.1969 82.138C64.7606 82.138 65.2016 82.2754 65.5868 82.7381V80.7358C65.5868 80.4778 65.6035 80.3825 65.6649 80.2563C65.7375 80.1133 65.891 80.0039 66.1198 80.0039C66.3514 80.0039 66.5022 80.1133 66.5747 80.2563C66.6361 80.3825 66.6529 80.4778 66.6529 80.7358V86.8381ZM64.4899 86.6277C65.4584 86.6277 65.5923 85.8145 65.5923 84.8666C65.5923 83.9188 65.4556 83.1055 64.4899 83.1055C63.5271 83.1055 63.3903 83.9188 63.3903 84.8666C63.3903 85.8145 63.5271 86.6277 64.4899 86.6277Z" fill="#69451C"></path>
<path d="M71.1539 84.0619C70.9223 84.0619 70.8246 84.045 70.7185 83.9889C70.5874 83.9104 70.498 83.7618 70.498 83.5795C70.498 83.3972 70.5874 83.2486 70.7185 83.1701C70.8246 83.1084 70.9223 83.0972 71.1539 83.0972H74.4388C74.6704 83.0972 74.7681 83.1084 74.8741 83.1701C75.0053 83.2486 75.0946 83.3972 75.0946 83.5795C75.0946 83.7618 75.0053 83.9104 74.8741 83.9889C74.7709 84.0478 74.6704 84.0619 74.4388 84.0619H71.1539ZM71.1539 86.1399C70.9223 86.1399 70.8246 86.123 70.7185 86.067C70.5874 85.9884 70.498 85.8398 70.498 85.6575C70.498 85.4724 70.5874 85.3266 70.7185 85.2481C70.8246 85.1864 70.9223 85.1752 71.1539 85.1752H74.4388C74.6704 85.1752 74.7681 85.1864 74.8741 85.2481C75.0053 85.3266 75.0946 85.4752 75.0946 85.6575C75.0946 85.8426 75.0053 85.9884 74.8741 86.067C74.7709 86.1259 74.6704 86.1399 74.4388 86.1399H71.1539Z" fill="#69451C"></path>
<path d="M80.6638 80.2962C80.8257 80.1335 81.0043 80.0073 81.2499 80.0073C81.4174 80.0073 81.5541 80.0662 81.6518 80.1644C81.7941 80.3102 81.8081 80.5065 81.8081 80.7252V86.8415C81.8081 87.0995 81.7913 87.1948 81.7299 87.321C81.6574 87.4641 81.5067 87.5734 81.275 87.5734C81.0462 87.5734 80.8927 87.4641 80.8201 87.321C80.7587 87.1948 80.742 87.0995 80.742 86.8415V81.6338L80.0052 82.3742C79.8266 82.5537 79.7484 82.6097 79.634 82.6434C79.4777 82.6855 79.3047 82.6378 79.1679 82.5004C79.0312 82.363 78.9893 82.2003 79.0312 82.0433C79.0619 81.9283 79.1205 81.8442 79.2991 81.6647L80.6638 80.2962Z" fill="#69451C"></path>
<path d="M91.5188 80.9835C91.4044 81.048 91.2984 81.0564 91.0584 81.0564H89.6573V86.7997C89.6573 87.0773 89.6518 87.1671 89.5736 87.3157C89.4899 87.4671 89.3168 87.5737 89.0936 87.5737C88.8675 87.5737 88.6973 87.47 88.6135 87.3157C88.5354 87.1699 88.5298 87.0802 88.5298 86.7997V81.0564H87.1288C86.8888 81.0564 86.7827 81.0452 86.6683 80.9835C86.5315 80.905 86.4395 80.7536 86.4395 80.5517C86.4395 80.3497 86.5343 80.1983 86.6683 80.1198C86.7827 80.0553 86.8888 80.0469 87.1288 80.0469H91.0611C91.3012 80.0469 91.4072 80.0581 91.5216 80.1198C91.6584 80.1983 91.7533 80.3497 91.7533 80.5517C91.7533 80.7536 91.6556 80.905 91.5188 80.9835Z" fill="#69451C"></path>
<path d="M94.555 82.1411C94.9485 82.1411 95.2304 82.214 95.4872 82.3879C95.6714 82.5085 95.8053 82.6655 95.8053 82.8702C95.8053 83.0217 95.7439 83.1647 95.649 83.26C95.5597 83.3498 95.4202 83.4059 95.2834 83.4059C95.1746 83.4059 95.0518 83.3694 94.8704 83.2628C94.6918 83.1619 94.5048 83.1058 94.2955 83.1058C93.6898 83.1058 93.2126 83.5573 93.2126 84.2976V86.8412C93.2126 87.0992 93.1959 87.1945 93.1345 87.3207C93.0619 87.4637 92.9084 87.5731 92.6795 87.5731C92.4507 87.5731 92.2972 87.4637 92.2246 87.3207C92.1604 87.1945 92.1465 87.0992 92.1465 86.8412V82.8955C92.1465 82.601 92.1688 82.5057 92.2414 82.3851C92.3307 82.2421 92.5037 82.1579 92.6795 82.1579C92.8526 82.1579 93.0144 82.2252 93.1121 82.3683C93.1707 82.4524 93.1959 82.5309 93.207 82.7581C93.5029 82.3879 93.9996 82.1411 94.555 82.1411Z" fill="#69451C"></path>
<path d="M98.4478 82.1411C99.8321 82.1411 100.661 83.1563 100.692 84.5641C100.697 84.7211 100.675 84.9118 100.547 85.0436C100.41 85.181 100.234 85.181 100.075 85.181H97.2561C97.2561 86.0896 97.7334 86.6842 98.6153 86.6842C98.9865 86.6842 99.3465 86.5776 99.634 86.3476C99.7958 86.2158 99.9326 86.1541 100.069 86.1541C100.284 86.1541 100.507 86.3645 100.507 86.6112C100.507 86.858 100.237 87.0908 99.9744 87.2562C99.6395 87.4778 99.1595 87.5984 98.5902 87.5984C97.2673 87.5984 96.2012 86.9001 96.2012 84.8726C96.2012 83.1114 97.0943 82.1411 98.4478 82.1411ZM99.4944 83.7059C99.3158 83.3077 98.9502 83.0329 98.4478 83.0329C97.9343 83.0329 97.5687 83.3049 97.3901 83.7059C97.284 83.9387 97.2645 84.1042 97.2533 84.4323H99.6367C99.62 84.1042 99.6005 83.9387 99.4944 83.7059Z" fill="#69451C"></path>
<path d="M104.068 82.1411C105.455 82.1411 106.281 83.1563 106.312 84.5641C106.317 84.7211 106.295 84.9118 106.167 85.0436C106.03 85.181 105.854 85.181 105.695 85.181H102.876C102.876 86.0896 103.353 86.6842 104.235 86.6842C104.606 86.6842 104.966 86.5776 105.254 86.3476C105.416 86.2158 105.553 86.1541 105.689 86.1541C105.904 86.1541 106.127 86.3645 106.127 86.6112C106.127 86.858 105.857 87.0908 105.594 87.2562C105.26 87.4778 104.779 87.5984 104.207 87.5984C102.884 87.5984 101.818 86.9001 101.818 84.8726C101.818 83.1114 102.714 82.1411 104.068 82.1411ZM105.114 83.7059C104.936 83.3077 104.57 83.0329 104.068 83.0329C103.554 83.0329 103.189 83.3049 103.01 83.7059C102.904 83.9387 102.884 84.1042 102.873 84.4323H105.257C105.24 84.1042 105.218 83.9387 105.114 83.7059Z" fill="#69451C"></path>
<path d="M110.342 86.8023V80.7449C110.342 80.5767 110.342 80.3775 110.504 80.2149C110.666 80.0522 110.864 80.0522 111.031 80.0522H113.163C114.617 80.0522 115.547 81.0197 115.547 82.321C115.547 83.6222 114.615 84.5813 113.163 84.5813H111.469V86.8051C111.469 87.0827 111.464 87.1725 111.386 87.3211C111.302 87.4725 111.129 87.5791 110.906 87.5791C110.682 87.5791 110.509 87.4753 110.426 87.3211C110.345 87.1697 110.342 87.0799 110.342 86.8023ZM111.469 83.5689H113.102C113.897 83.5689 114.419 83.1062 114.419 82.3181C114.419 81.5133 113.897 81.0562 113.102 81.0562H111.469V83.5689Z" fill="#69451C"></path>
<path d="M116.768 80.728C116.768 80.47 116.784 80.3775 116.846 80.2485C116.918 80.1055 117.072 79.9961 117.301 79.9961C117.529 79.9961 117.683 80.1055 117.756 80.2485C117.817 80.3747 117.834 80.47 117.834 80.728V86.0086C117.834 86.376 117.982 86.6115 118.372 86.6227C118.545 86.6283 118.665 86.6424 118.76 86.6957C118.886 86.763 118.975 86.8948 118.975 87.0742C118.975 87.2537 118.886 87.3799 118.76 87.4472C118.665 87.5005 118.526 87.5313 118.311 87.5313H118.205C117.206 87.5313 116.768 86.8387 116.768 86.0535V80.728Z" fill="#69451C"></path>
<path d="M121.419 84.421H122.826V84.0901C122.826 83.3919 122.497 83.0497 121.718 83.0497C121.294 83.0497 121.012 83.1703 120.705 83.4059C120.568 83.5124 120.417 83.5489 120.317 83.5489C120.208 83.5489 120.088 83.5012 120.007 83.4059C119.918 83.3049 119.881 83.218 119.881 83.075C119.881 82.8338 120.108 82.6179 120.378 82.4608C120.749 82.2449 121.179 82.1411 121.726 82.1411C123.15 82.1411 123.898 82.7665 123.898 83.9752V86.844C123.898 87.1076 123.886 87.2058 123.819 87.3263C123.741 87.4722 123.568 87.5731 123.365 87.5731C123.191 87.5731 123.06 87.5114 122.977 87.4217C122.915 87.3488 122.868 87.2646 122.857 87.0375C122.438 87.4469 122.083 87.5899 121.433 87.5899C120.769 87.5899 120.325 87.4385 120.004 87.1076C119.734 86.83 119.58 86.4177 119.58 85.9662C119.583 85.0717 120.216 84.421 121.419 84.421ZM121.623 86.701C122.005 86.701 122.318 86.6589 122.591 86.3953C122.759 86.2383 122.826 85.9971 122.826 85.6017V85.181H121.57C120.942 85.181 120.624 85.453 120.624 85.9494C120.624 86.4346 120.948 86.701 121.623 86.701Z" fill="#69451C"></path>
<path d="M126.605 86.8439C126.605 87.1019 126.588 87.1972 126.527 87.3234C126.454 87.4664 126.301 87.5758 126.072 87.5758C125.843 87.5758 125.69 87.4664 125.617 87.3234C125.556 87.1972 125.539 87.1019 125.539 86.8439V82.8982C125.539 82.6037 125.561 82.5084 125.634 82.3878C125.723 82.2447 125.896 82.1606 126.072 82.1606C126.245 82.1606 126.407 82.2279 126.507 82.3709C126.561 82.4495 126.591 82.528 126.602 82.7215C126.968 82.3317 127.47 82.1382 127.998 82.1382C128.542 82.1382 128.991 82.3177 129.304 82.6205C129.711 83.0187 129.837 83.5235 129.837 84.1237V86.8411C129.837 87.0991 129.82 87.1944 129.759 87.3206C129.686 87.4636 129.533 87.573 129.304 87.573C129.075 87.573 128.922 87.4636 128.849 87.3206C128.785 87.1944 128.771 87.0991 128.771 86.8411V84.2835C128.771 83.4534 128.299 83.1057 127.705 83.1057C127.11 83.1057 126.608 83.4618 126.608 84.2835V86.8439H126.605Z" fill="#69451C"></path>
<path d="M131.696 83.0222H131.451C131.253 83.0222 131.174 83.011 131.08 82.9605C130.96 82.8932 130.893 82.7727 130.893 82.6128C130.893 82.4558 130.96 82.3352 131.08 82.2651C131.174 82.2118 131.253 82.2034 131.451 82.2034H131.696V81.3677C131.696 81.1097 131.713 81.0143 131.774 80.8881C131.847 80.7451 132.001 80.6357 132.229 80.6357C132.458 80.6357 132.612 80.7451 132.684 80.8881C132.746 81.0143 132.762 81.1097 132.762 81.3677V82.2034H133.337C133.536 82.2034 133.614 82.2146 133.709 82.2651C133.829 82.3324 133.896 82.453 133.896 82.6128C133.896 82.7698 133.829 82.8904 133.709 82.9605C133.614 83.0138 133.536 83.0222 133.337 83.0222H132.762V86.006C132.762 86.3734 132.91 86.609 133.301 86.6202C133.474 86.6258 133.594 86.6398 133.689 86.6931C133.815 86.7604 133.904 86.8922 133.904 87.0717C133.904 87.2512 133.815 87.3774 133.689 87.4447C133.594 87.4979 133.455 87.5288 133.24 87.5288H133.136C132.137 87.5288 131.699 86.8361 131.699 86.0509V83.0222H131.696Z" fill="#69451C"></path>
<path d="M137.077 82.1411C138.461 82.1411 139.29 83.1563 139.321 84.5641C139.326 84.7211 139.304 84.9118 139.175 85.0436C139.039 85.181 138.863 85.181 138.704 85.181H135.885C135.885 86.0896 136.362 86.6842 137.244 86.6842C137.615 86.6842 137.975 86.5776 138.263 86.3476C138.425 86.2158 138.561 86.1541 138.698 86.1541C138.913 86.1541 139.136 86.3645 139.136 86.6112C139.136 86.858 138.866 87.0908 138.603 87.2562C138.268 87.4778 137.788 87.5984 137.219 87.5984C135.896 87.5984 134.83 86.9001 134.83 84.8726C134.827 83.1114 135.723 82.1411 137.077 82.1411ZM138.123 83.7059C137.945 83.3077 137.579 83.0329 137.077 83.0329C136.563 83.0329 136.198 83.3049 136.019 83.7059C135.913 83.9387 135.893 84.1042 135.882 84.4323H138.266C138.249 84.1042 138.227 83.9387 138.123 83.7059Z" fill="#69451C"></path>
<path d="M144.805 86.8381C144.805 87.1325 144.783 87.2279 144.71 87.3485C144.621 87.4915 144.448 87.5756 144.272 87.5756C144.099 87.5756 143.937 87.5083 143.84 87.3653C143.781 87.2868 143.756 87.2082 143.745 86.9867C143.351 87.455 142.913 87.5952 142.36 87.5952C141.827 87.5952 141.356 87.4158 141.063 87.1213C140.549 86.5969 140.477 85.7444 140.477 84.861C140.477 83.9889 140.549 83.1364 141.063 82.6119C141.356 82.3175 141.816 82.138 142.349 82.138C142.913 82.138 143.354 82.2754 143.739 82.7381V80.7358C143.739 80.4778 143.756 80.3825 143.817 80.2563C143.89 80.1133 144.043 80.0039 144.272 80.0039C144.501 80.0039 144.655 80.1133 144.727 80.2563C144.788 80.3825 144.805 80.4778 144.805 80.7358V86.8381ZM142.639 86.6277C143.608 86.6277 143.742 85.8145 143.742 84.8666C143.742 83.9188 143.605 83.1055 142.639 83.1055C141.677 83.1055 141.54 83.9188 141.54 84.8666C141.54 85.8145 141.677 86.6277 142.639 86.6277Z" fill="#69451C"></path>
</svg>