<svg xmlns:xlink="http://www.w3.org/1999/xlink" viewBox="0 0 200 44" fill="none" xmlns="http://www.w3.org/2000/svg" width="200"  height="44" >
<g clip-path="url(#clip0)" fill="none">
<path d="M77.7669 42.9174C76.9176 42.9174 76.3145 42.3607 76.1999 41.4684L76.1234 40.9458C76.013 40.1512 75.8984 39.3311 75.6903 38.5493C75.3973 37.3722 75.0618 36.1782 74.739 35.0267C74.5522 34.3638 74.3696 33.701 74.1912 33.0423C73.9619 32.2393 73.5924 29.6813 73.3673 28.8782C73.2739 28.5467 73.1805 28.2153 73.0913 27.8839C73.0913 28.9122 73.2442 31.7166 73.2654 32.7492C73.2654 33.0254 73.2909 33.2973 73.3206 33.582C73.3503 33.8752 73.3801 34.1811 73.3801 34.4913C73.3801 34.8992 73.3588 35.3072 73.3334 35.7023C73.3036 36.191 73.2782 36.6924 73.2909 37.1895C73.3206 38.4515 73.4268 39.6625 73.5414 40.9458L73.5457 41.001C73.5797 41.154 73.5797 41.29 73.5797 41.4132C73.5797 41.5492 73.5797 41.7531 73.4905 41.9741C73.3164 42.5052 72.7983 42.8452 72.1443 42.8452C71.1166 42.8452 70.4796 42.1865 70.4796 41.12C70.5093 39.6158 70.4541 38.1413 70.3946 36.5819L70.3904 36.5182C70.3819 36.0423 70.3692 35.5791 70.3564 35.1117C70.3309 34.2194 70.3055 33.2973 70.3055 32.3752C70.3055 31.4914 70.3267 30.5991 70.3479 29.7408C70.3692 28.8867 70.3904 27.9986 70.3904 27.1275C70.3904 26.3754 70.3692 25.6106 70.3437 24.867C70.314 23.9322 70.2885 22.9676 70.3012 22.0115C70.3012 21.3699 70.3734 20.7325 70.4414 20.1164C70.4923 19.6788 70.539 19.2666 70.5603 18.8502C70.59 17.9918 70.6027 17.125 70.6197 16.2582C70.6325 15.3914 70.6494 14.516 70.6792 13.6365C70.6792 13.322 70.7981 13.0756 70.866 12.9439C71.1336 12.4467 72.6157 12.366 72.6327 12.366C72.777 12.366 72.8875 12.3872 72.9766 12.4382C73.121 12.5189 73.2484 12.6082 73.3716 12.6931C73.4225 12.7314 73.4777 12.7654 73.5287 12.8036C74.1615 13.3135 74.7942 13.8022 75.427 14.2908C75.9069 14.6818 76.2296 15.1407 76.4589 15.7483C76.5991 16.0712 76.684 16.4239 76.7689 16.7638C76.7944 16.8616 76.8199 16.9593 76.8454 17.0613C77.4994 19.7127 76.1702 21.6546 74.9386 23.0483C74.8112 23.2098 74.6498 23.3203 74.5437 23.384C74.6328 23.6942 74.7263 24.0044 74.8197 24.3103C74.9089 24.6078 74.9981 24.8967 75.083 25.1857C75.342 26.129 75.6181 27.068 75.8941 28.0029C76.1702 28.9419 76.4419 29.881 76.701 30.8158C76.994 31.8993 77.2573 33.0041 77.5121 34.0707C77.6905 34.8185 77.8688 35.5621 78.0557 36.3057C78.3912 37.6527 78.7309 38.9742 79.0664 40.2914L79.0961 40.4019C79.1428 40.5591 79.1556 40.7121 79.1683 40.848C79.1726 40.9075 79.1811 40.9628 79.1896 41.0138C79.2533 41.2942 79.3255 41.8806 78.9985 42.3437C78.8456 42.5562 78.5483 42.8239 77.9835 42.8919C77.9113 42.9131 77.8391 42.9174 77.7669 42.9174ZM72.9002 21.2977C73.6094 20.5286 74.1232 19.6788 74.1785 19.0711C74.3441 17.5797 74.0341 16.4324 73.1932 15.4976L72.9002 21.2977Z" fill="#636732"></path>
<path d="M40.7101 42.9174C40.6421 42.9174 40.5742 42.9132 40.5062 42.9047C39.7206 42.8367 38.8075 42.1653 38.6929 41.0563C38.6547 40.7291 38.6207 40.3977 38.5867 40.0663C38.4551 38.851 38.3234 37.5975 38.1196 36.3822C37.8903 34.9375 37.5845 33.4716 37.2872 32.0481L37.0579 30.9433C36.9899 30.6671 36.9008 30.3782 36.8073 30.0723C36.7139 29.7706 35.1893 20.4904 34.943 19.4154C34.96 19.7808 35.1554 23.2099 35.1554 23.588C35.1554 25.7424 35.1554 27.9732 35.1851 30.1317C35.2021 31.0241 35.2573 31.9334 35.3083 32.8087C35.3507 33.4886 35.3889 34.1684 35.4144 34.8526C35.4357 35.4899 35.4484 36.1315 35.4654 36.7689C35.4951 37.9969 35.5291 39.2674 35.5843 40.5039C35.6013 41.0266 35.4526 41.4642 35.1426 41.7829C34.8539 42.0846 34.4377 42.2461 33.9748 42.2461C33.6435 42.2461 33.1042 42.0039 32.7687 41.6045C32.5267 41.3113 32.429 40.9841 32.4884 40.6484C32.6541 39.8496 32.6243 39.0337 32.5989 38.1711C32.5861 37.9587 32.5691 37.7335 32.5521 37.5125C32.5054 36.8496 32.4545 36.1655 32.4545 35.5027C32.4417 34.9715 32.4205 33.6415 32.4035 32.2733C32.378 30.6416 32.3568 28.9547 32.3398 28.5043C32.2973 27.0893 32.3016 25.6659 32.3058 24.2892C32.3058 23.826 32.3101 23.3586 32.3101 22.8912C32.3101 22.5173 32.3186 22.1433 32.3271 21.7694C32.3398 21.2298 32.3525 20.6731 32.3398 20.1335C32.3398 19.7383 32.2931 19.3516 32.2506 18.9777C32.2167 18.6718 32.1784 18.3531 32.1657 18.0302C32.1275 17.2951 32.1147 16.5429 32.102 15.8163C32.0977 15.4679 32.0893 15.1237 32.0808 14.7753C32.0638 14.6903 32.0638 14.6096 32.0638 14.5331C32.0638 14.4991 32.0638 14.4694 32.0638 14.4439C31.9916 14.2399 31.8387 13.6238 32.1402 13.0799C32.2719 12.8377 32.5521 12.519 33.1212 12.3788C33.3335 12.332 33.5246 12.3108 33.7072 12.3108C34.4801 12.3108 35.0535 12.7187 35.3252 13.4538C35.4441 13.7683 35.5716 14.0869 35.7032 14.4014C36.0047 15.1407 36.3105 15.9013 36.5228 16.6917C36.888 18.0047 37.2108 19.3686 37.5208 20.6859C37.6779 21.3487 37.8308 22.0116 37.9964 22.6702C38.1705 23.3968 39.4955 31.245 39.763 32.3965C39.7418 30.8838 39.3214 25.2112 39.3214 23.724C39.2917 21.489 39.3214 19.2454 39.3511 17.0826C39.3511 15.7866 39.3893 14.6436 39.47 13.594C39.5125 13.0629 39.8267 12.7442 40.0816 12.4893L40.1283 12.4425L40.1877 12.4128C40.2854 12.3618 40.3831 12.3533 40.6336 12.3533C41.6401 12.3533 41.6953 12.4085 41.8057 12.519L41.8227 12.536L41.8397 12.5572C42.0478 12.8249 42.3026 13.1564 42.3026 13.6238C42.3026 14.7116 42.2728 15.8163 42.2431 16.8829C42.2134 17.9452 42.1837 19.0414 42.1837 20.1165C42.1539 22.3345 42.1539 24.5653 42.1837 26.7494C42.1837 27.5865 42.2219 28.4406 42.2601 29.2649C42.2898 29.898 42.3153 30.5269 42.3281 31.16V41.0096C42.3366 42.3226 41.4957 42.9174 40.7101 42.9174Z" fill="#636732"></path>
<path d="M47.9295 42.917C47.5685 42.917 47.2585 42.7895 47.0292 42.5431C46.6937 42.1861 46.6003 41.655 46.6258 41.2768C46.6598 40.7244 46.7022 40.1635 46.7489 39.6069C46.8126 38.7826 46.8806 37.9285 46.9146 37.0999C46.9315 36.59 46.9103 36.0631 46.8891 35.549C46.8721 35.1538 46.8594 34.7629 46.8594 34.3762C46.8594 33.8068 46.8721 33.2374 46.8891 32.668C46.9018 32.1156 46.9188 31.5675 46.9188 31.0279C46.9188 30.5859 46.9061 30.144 46.8976 29.7021C46.8721 28.7121 46.8466 27.688 46.9485 26.681C47.0759 25.5932 47.0505 24.4842 47.025 23.4134C47.0037 22.5763 46.9825 21.7052 47.0335 20.8384C47.0717 20.218 47.1142 19.5976 47.1566 18.9772C47.2373 17.7747 47.3222 16.5297 47.3817 15.306C47.3987 15.068 47.369 14.8131 47.3392 14.5454C47.3222 14.3924 47.3053 14.2394 47.2968 14.0865C47.2033 13.1856 47.7554 12.5015 48.7364 12.3146C48.9317 12.2891 49.1101 12.2508 49.2927 12.2126C49.5603 12.1574 49.8363 12.0979 50.1166 12.0766C50.4563 12.0639 51.3651 12.0469 52.3164 12.0469C53.1275 12.0469 54.1722 12.0596 54.5629 12.1106C55.2296 12.1871 55.9133 12.8585 55.9983 13.5171C56.0662 13.925 55.9728 14.3159 55.7222 14.6304C55.3782 15.0638 54.8219 15.2422 54.4482 15.2635C54.4227 15.2677 54.3633 15.272 54.3038 15.272C54.2062 15.272 54.1127 15.2635 54.0151 15.2507C53.9514 15.2422 53.8834 15.2337 53.8197 15.2337C53.7178 15.2337 53.6286 15.2252 53.5352 15.2167C53.4672 15.2125 53.4035 15.204 53.3313 15.204C53.1317 15.1912 52.414 15.1827 51.552 15.1827C50.9999 15.1827 50.5073 15.187 50.1803 15.1912L49.9 21.6882C50.2355 21.7052 50.7323 21.7265 51.1315 21.7392C52.1592 21.7774 52.6604 21.8029 52.8302 21.8327C53.068 21.8624 53.3313 21.8964 53.5861 22.0069C54.2062 22.3171 54.4864 22.8567 54.3845 23.5026C54.2699 24.3014 53.6881 24.7816 52.826 24.7816C52.5882 24.7816 52.3843 24.7434 52.2527 24.7136L52.2442 24.7094C52.0616 24.6839 51.123 24.6711 50.554 24.6626C50.2695 24.6584 50.0571 24.6541 49.8957 24.6499C49.8703 25.3212 49.8405 25.9884 49.8108 26.6555C49.7726 27.4756 49.7386 28.2999 49.7089 29.1285C49.6962 29.4344 49.6749 29.7361 49.6537 30.042C49.624 30.4797 49.59 30.9301 49.59 31.3678C49.6027 31.9032 49.6409 32.4726 49.6749 33.0207C49.7131 33.5986 49.7471 34.1977 49.7641 34.7926C49.7853 36.0589 49.7599 37.3378 49.7301 38.5744C49.7216 38.995 49.7131 39.4114 49.7046 39.8321V40.0956C49.7089 40.5672 49.7131 41.0516 49.607 41.5318C49.4966 42.1224 48.953 42.7003 48.3499 42.8617C48.1843 42.9 48.0527 42.917 47.9295 42.917Z" fill="#636732"></path>
<path d="M62.2067 42.9127C61.0856 42.9127 59.9729 42.2795 59.4336 41.3362C59.1746 40.9028 58.9707 40.3547 58.8646 39.7895C58.7669 39.2796 58.6777 38.7655 58.5758 38.2046C58.4399 37.4355 58.287 36.5857 58.0874 35.5489C58.0747 35.4427 57.8793 33.7345 57.8199 32.8422C57.7052 30.964 57.6458 29.0519 57.6458 27.1611C57.6458 25.2617 57.7137 23.4643 57.8496 21.8156C57.9345 20.7023 58.1511 19.5933 58.4059 18.3611C58.5928 17.388 58.8306 16.262 59.234 15.2082C59.5653 14.2989 60.1343 13.4618 60.6397 12.7479C60.9667 12.289 61.5782 12.0383 62.3681 12.0383C63.124 12.0383 63.8799 12.2763 64.2494 12.6247C65.3832 13.6148 65.9693 14.762 66.0245 16.1175C66.05 16.5297 66.1222 16.9503 66.1986 17.3965C66.2878 17.9149 66.3812 18.4545 66.3982 19.0112C66.4364 20.0777 66.4237 21.157 66.4109 22.2023C66.4025 22.7292 66.3982 23.2561 66.3982 23.783C66.3982 24.7348 66.3982 25.7206 66.3685 26.7106C66.2793 28.491 66.1646 30.3182 66.05 32.0348L65.9863 32.9442C65.8971 34.2231 65.8079 35.5489 65.6423 36.8491C65.5149 37.9454 65.2558 39.0247 65.001 40.07L64.8821 40.5586C64.5976 41.8249 63.7907 42.6662 62.6696 42.8702C62.5252 42.8999 62.3681 42.9127 62.2067 42.9127ZM60.4571 31.3125C60.6142 32.3578 60.7671 33.3946 60.92 34.4271C61.0983 35.6424 61.2767 36.8491 61.4593 38.0601C61.5612 38.6465 61.6929 39.2541 61.9519 39.7003C61.9646 39.7173 61.9986 39.7513 62.0496 39.7895C62.0581 39.7768 62.0623 39.764 62.0708 39.7513C62.1388 39.5856 62.1897 39.4114 62.2407 39.2074L62.2449 39.1862L62.2534 39.1649C62.3299 38.9609 62.3808 38.7527 62.436 38.5318C62.8395 37.1976 62.9499 35.8506 63.0348 34.4696C63.0773 33.9342 63.1113 33.3988 63.141 32.8634C63.1919 31.9796 63.2472 31.066 63.3533 30.1737C63.468 29.0647 63.4637 27.9047 63.4595 26.7829C63.4595 26.2645 63.4552 25.7461 63.4637 25.2234C63.4722 24.7603 63.485 24.2971 63.4977 23.834C63.5274 22.7079 63.5614 21.5394 63.5189 20.4007C63.502 19.7038 63.4043 18.9899 63.3109 18.3016C63.2344 17.7492 63.158 17.1756 63.1155 16.6062C63.09 15.956 62.9244 15.5694 62.5464 15.2592C62.487 15.1997 62.4488 15.1615 62.4021 15.1275C62.3978 15.1275 62.3893 15.1275 62.3851 15.1275C61.8033 15.7181 61.6716 16.432 61.4933 17.4093L61.4763 17.4942C61.0049 20.2264 60.6864 22.691 60.4995 25.011C60.3976 26.5407 60.4146 28.1086 60.4316 29.6213C60.4486 30.1822 60.4571 30.7473 60.4571 31.3125Z" fill="#636732"></path>
<path d="M89.0208 42.908C88.4645 42.908 86.3284 42.823 85.7551 42.7636C85.7551 42.7636 85.3304 42.6871 85.2412 42.6743C84.8505 42.6446 84.5575 42.6148 84.3282 42.5469C83.5341 42.3811 83.0924 41.8712 83.0117 40.9959C83.0117 40.7197 83.0117 40.4223 83.0414 40.0016C83.0967 38.7226 83.1264 37.4181 83.1561 36.1604C83.1688 35.6165 83.1901 35.0811 83.2113 34.5457C83.241 33.7894 83.2708 33.0033 83.2708 32.2427C83.2835 31.3971 83.2793 30.5557 83.275 29.7144C83.2708 28.6096 83.2665 27.4666 83.3005 26.3406C83.3132 25.4058 83.3599 24.4455 83.4024 23.5192C83.4449 22.5843 83.4874 21.6155 83.5043 20.6637C83.5213 19.44 83.5086 18.195 83.4958 16.9882C83.4873 16.1681 83.4789 15.3438 83.4789 14.5237C83.4789 14.477 83.4661 14.4217 83.4576 14.3707C83.4406 14.273 83.4236 14.1795 83.4236 14.0903C83.3982 13.8353 83.4024 13.3722 83.6827 13.0025C84.0691 12.5776 84.6892 12.1484 85.3559 12.1144C85.8952 12.0677 86.8677 12.0634 87.7468 12.0634H89.042C89.4455 12.0634 89.8022 12.0634 90.0612 12.0549C91.1229 12.0549 91.7684 12.6073 91.7939 13.5336C91.7939 14.5109 91.0974 15.1823 90.0995 15.1823H86.3539V20.9102C86.545 20.9017 86.7658 20.8932 87.0036 20.8804C87.6958 20.8507 88.6428 20.8124 88.9061 20.7487C89.042 20.719 89.1694 20.7062 89.2926 20.7062C90.0443 20.7062 90.643 21.2119 90.7492 21.9385C90.8044 22.3294 90.745 22.886 90.4052 23.2897C90.2226 23.5022 89.8871 23.7656 89.3011 23.7826C88.749 23.8081 87.1353 23.8506 86.2562 23.8633C86.2435 24.6367 86.2222 25.41 86.2052 26.1834C86.184 27.0884 86.1628 27.9978 86.1458 28.9028C86.1161 30.3433 86.0948 31.7838 86.0736 33.2242C86.0524 34.6689 86.0311 36.1179 86.0014 37.5626V39.6489C86.9866 39.6872 88.7872 39.8401 89.3945 39.9974C89.8404 40.0951 90.1419 40.5158 90.2396 40.6517L90.2778 40.7027L90.2991 40.7622C90.316 40.809 90.3245 40.8344 90.367 40.8939L90.4392 41.0002V41.1276C90.4392 41.1404 90.2226 42.3939 89.9041 42.6063L89.8829 42.6233L89.8022 42.6658C89.6408 42.7508 89.369 42.908 89.0208 42.908Z" fill="#636732"></path>
<path d="M98.3802 42.9169C98.1127 42.9169 97.8367 42.8829 97.5564 42.8106C97.102 42.6789 96.8047 42.4409 96.5159 42.2115C96.4268 42.1393 96.3333 42.067 96.2314 41.9948C95.0169 41.1195 94.6007 39.8575 94.2779 38.6422C94.2015 38.3278 94.1548 38.0176 94.1081 37.7159C94.0656 37.4227 94.0231 37.1465 93.9594 36.8788C93.8575 36.3944 93.9254 35.9567 94.1463 35.6253C94.2949 35.4086 94.5837 35.1282 95.1315 35.0304C95.2419 35.0134 95.3438 35.0049 95.4373 35.0049C96.3376 35.0049 96.7537 35.7273 96.8387 36.3477C96.8769 36.5729 96.9109 36.8151 96.9448 37.0615C97.0043 37.5119 97.068 37.9751 97.1784 38.4085C97.3186 39.0671 97.7347 39.594 98.4185 39.9892C98.4822 39.9892 98.635 39.9127 98.8559 39.6323C99.616 38.672 99.7901 37.4864 99.8623 36.3477C100.036 34.1254 99.9345 31.9795 99.5523 29.9612C99.4716 29.5788 99.3357 29.1836 99.1531 28.7927C99.0809 28.6312 99.013 28.4782 98.945 28.3295C98.8049 28.0193 98.6563 27.7006 98.5374 27.3777C98.1806 26.4981 97.5351 25.695 96.9066 24.9217C96.724 24.6965 96.5457 24.4755 96.3758 24.2546C95.5604 23.205 94.5625 21.7773 94.1081 20.0309C93.9891 19.6018 94.0486 19.1896 94.1038 18.9177C94.1505 18.7052 94.2142 18.4078 94.2439 18.1443C94.2992 17.7959 94.3416 17.4602 94.3883 17.1203C94.4988 16.3129 94.6134 15.4801 94.8003 14.6855C95.0975 13.5977 95.5137 12.8626 96.0785 12.4292C96.4013 12.1827 96.8429 12.051 97.361 12.051C97.8409 12.051 98.376 12.1658 98.7497 12.3527C100.015 12.9264 100.75 14.0864 100.86 15.7053C100.865 15.7308 100.877 15.7945 100.916 15.8965C101 16.1557 101.056 16.3597 101.085 16.5339C101.153 16.8653 101.153 17.2435 101.081 17.5622C100.937 18.1656 100.351 18.429 99.8326 18.429C99.4759 18.429 99.1574 18.31 98.9705 18.1018C98.7327 17.7831 98.6308 17.5069 98.5374 17.2265C98.4269 16.9715 98.3335 16.6869 98.2401 16.4149C98.1976 16.2832 98.1552 16.1557 98.1084 16.024C97.998 15.6671 97.8791 15.3654 97.756 15.1189C97.5266 15.3994 97.395 15.7095 97.3101 16.16C97.2718 16.3724 97.2506 16.5934 97.2294 16.8271C97.2081 17.0693 97.1827 17.3242 97.136 17.5749C97.0553 18.1698 97.0001 18.7987 96.9703 19.4191C96.9279 19.9374 97.1275 20.3411 97.5351 20.953C97.5988 21.0465 97.6753 21.1527 97.7475 21.2632C97.8197 21.3694 97.8876 21.4756 97.9598 21.5734C98.2656 22.0238 98.5926 22.4614 98.9068 22.8821C99.1616 23.2263 99.4207 23.5662 99.6627 23.9147C100.232 24.7135 100.835 25.5803 101.31 26.5704C102.41 28.9414 102.869 31.5291 102.708 34.4823C102.682 34.8775 102.686 35.2896 102.691 35.6891C102.695 36.182 102.699 36.6918 102.648 37.1847C102.521 38.2768 102.33 39.9127 101.289 41.2172C100.406 42.3602 99.4547 42.9169 98.3802 42.9169Z" fill="#636732"></path>
<path d="M110.245 42.9085C109.354 42.9085 108.823 42.1054 108.823 41.3278C108.853 40.3972 108.853 39.4794 108.853 38.5871C108.882 36.1396 108.912 33.6113 108.882 31.0916C108.865 29.7701 108.789 28.4189 108.717 27.1101C108.67 26.307 108.627 25.4997 108.593 24.6966C108.538 23.4941 108.479 22.2491 108.479 21.0126C108.479 20.1755 108.492 19.3342 108.509 18.4886C108.521 17.6388 108.538 16.7889 108.538 15.9348C108.538 15.6502 108.513 15.3357 108.458 14.9788C107.884 14.949 106.95 14.949 106.402 14.949C105.387 14.9278 104.788 14.7451 104.44 14.3542C104.202 14.0865 104.1 13.7295 104.139 13.3004C104.275 12.3953 107.965 12.1064 108.003 12.1064C108.283 12.0979 108.581 12.0936 108.882 12.0936C109.197 12.0936 109.515 12.0979 109.808 12.1021C110.059 12.1064 110.292 12.1064 110.496 12.1064C111.133 12.1064 112.454 12.1064 113.341 12.0511C113.422 12.0469 113.503 12.0469 113.588 12.0469C115.418 12.0469 115.656 13.0837 115.673 13.5298C115.698 13.9207 115.584 14.2777 115.329 14.5496C114.955 14.949 114.31 15.153 113.409 15.153C113.07 15.1403 112.628 15.1318 112.199 15.1233C111.948 15.119 111.706 15.1148 111.498 15.1105C111.498 15.8626 111.494 16.6062 111.494 17.3498C111.49 19.075 111.481 20.8554 111.502 22.6018C111.502 23.8298 111.553 25.0705 111.6 26.2688C111.617 26.6512 111.63 27.0336 111.647 27.4118C111.668 27.8622 111.689 28.3126 111.711 28.763C111.753 29.6426 111.8 30.5519 111.821 31.457C111.855 32.9612 111.859 34.4994 111.863 35.9866C111.868 37.0021 111.868 38.0134 111.88 39.0205C111.88 39.3562 111.897 39.6791 111.91 39.9978C111.931 40.427 111.953 40.8731 111.936 41.3193C111.897 41.9694 111.333 42.6748 110.73 42.8405C110.568 42.883 110.403 42.9085 110.245 42.9085Z" fill="#636732"></path>
<path d="M129.258 42.9123C128.863 42.9123 128.519 42.7678 128.26 42.5002C127.946 42.173 127.781 41.6801 127.802 41.1404C127.857 39.6065 127.916 38.0173 127.946 36.4154C127.946 35.7992 127.929 35.1661 127.916 34.5372C127.895 33.6959 127.874 32.8248 127.891 31.9708C127.891 31.2399 127.929 30.4878 127.967 29.7612C127.997 29.2173 128.023 28.6734 128.035 28.1338C128.048 27.8958 128.023 27.6536 127.997 27.3987C127.972 27.182 127.95 26.9568 127.95 26.7273C127.942 25.9752 127.929 25.2189 127.912 24.4625C127.874 22.4951 127.836 20.4598 127.921 18.4585C127.963 17.2219 127.836 15.9642 127.713 14.7532C127.674 14.3835 127.636 14.0096 127.602 13.6399C127.564 13.3297 127.679 12.9643 127.921 12.6541C128.175 12.3312 128.519 12.123 128.872 12.0805C128.999 12.0677 129.118 12.0635 129.233 12.0635C130.808 12.0635 132.265 13.0408 132.945 14.5492C133.038 14.7532 133.144 14.9402 133.246 15.1229C133.327 15.2716 133.412 15.4161 133.484 15.569C133.747 16.0194 133.926 16.4316 134.032 16.8353C134.643 19.0236 135.081 20.8762 134.673 23.0263C134.363 24.641 133.514 25.6863 132.643 26.4809C132.711 26.5276 132.775 26.5701 132.843 26.5998C133.773 27.046 134.214 27.7683 134.465 28.2697C134.669 28.7032 134.822 29.1748 134.974 29.6295L135.068 29.9099C135.28 30.543 135.522 31.3801 135.522 32.2384C135.552 33.424 135.484 34.5542 135.314 35.5953C134.847 38.2765 133.246 40.2608 131.743 41.85C131.229 42.3982 130.464 42.6531 129.785 42.8358C129.602 42.8868 129.424 42.9123 129.258 42.9123ZM130.282 39.1348C130.741 38.7779 131.135 38.3955 131.399 37.9408C131.543 37.6816 131.717 37.4182 131.896 37.1462C132.023 36.9508 132.155 36.7553 132.278 36.5513C132.55 36.1604 132.745 35.778 132.864 35.4126C133.322 33.6959 133.148 31.8985 132.337 30.0841C131.9 29.1366 131.186 28.4312 130.282 28.0318V39.1348ZM130.282 25.1169C131.755 24.3095 132.443 23.0943 132.329 21.4923C132.291 20.9952 132.167 20.4513 131.972 19.8777C131.908 19.6652 131.84 19.4655 131.777 19.2658C131.641 18.8494 131.496 18.4245 131.399 17.991C131.178 17.1497 130.804 16.3891 130.282 15.7177V25.1169Z" fill="#A76E65"></path>
<path d="M143.247 42.3431C142.292 42.3431 141.043 41.8672 140.402 40.8049C140.134 40.38 139.922 39.8361 139.811 39.2837C139.714 38.7865 139.616 38.2809 139.514 37.7327C139.374 36.9806 139.217 36.1436 139.009 35.128C138.996 35.0218 138.792 33.3476 138.733 32.4723C138.614 30.6282 138.554 28.7543 138.554 26.8974C138.554 25.0363 138.627 23.2729 138.767 21.6582C138.856 20.5704 139.077 19.4784 139.34 18.2674C139.535 17.3156 139.778 16.2065 140.194 15.1698C140.538 14.2774 141.124 13.4531 141.646 12.7562C141.982 12.3101 142.606 12.0679 143.413 12.0679C144.054 12.0679 144.899 12.2463 145.336 12.6373C146.509 13.6103 147.116 14.7406 147.175 16.0748C147.201 16.4742 147.277 16.8864 147.354 17.3241C147.447 17.834 147.545 18.3651 147.562 18.909C147.6 19.9543 147.587 21.0123 147.574 22.0406C147.566 22.559 147.562 23.0732 147.562 23.5916C147.562 24.5264 147.562 25.4952 147.532 26.4597C147.443 28.2062 147.32 29.995 147.205 31.682L147.141 32.5743C147.052 33.832 146.959 35.128 146.789 36.4028C146.657 37.4778 146.39 38.5358 146.126 39.5599L146.003 40.04C145.71 41.285 144.878 42.1136 143.727 42.3091C143.574 42.3303 143.413 42.3431 143.247 42.3431ZM141.429 30.9638C141.595 31.9879 141.752 33.0034 141.905 34.019C142.088 35.2087 142.27 36.3943 142.466 37.5755C142.572 38.1449 142.708 38.7398 142.971 39.1732C142.984 39.1902 143.022 39.2199 143.052 39.2412C143.081 39.2242 143.12 39.203 143.145 39.1817C143.209 39.033 143.251 38.8758 143.302 38.6973L143.311 38.6718L143.319 38.6463C143.4 38.4466 143.451 38.2426 143.51 38.0259C143.927 36.7257 144.037 35.4042 144.126 34.0487C144.173 33.5218 144.203 32.9992 144.237 32.4765C144.287 31.6097 144.343 30.7131 144.457 29.8378C144.576 28.7543 144.572 27.6198 144.568 26.5192C144.568 26.0093 144.564 25.4994 144.572 24.9938C144.581 24.5391 144.593 24.0845 144.606 23.6298C144.64 22.525 144.674 21.382 144.631 20.2645C144.614 19.5846 144.513 18.8835 144.415 18.2079C144.334 17.664 144.254 17.1031 144.215 16.5465C144.19 15.9176 144.02 15.5394 143.634 15.2377C143.561 15.1698 143.519 15.1315 143.459 15.0933C142.929 15.6754 142.686 16.453 142.5 17.4176C142.016 20.0945 141.684 22.508 141.493 24.7813C141.387 26.2813 141.404 27.8152 141.421 29.2982C141.421 29.8548 141.429 30.4072 141.429 30.9638Z" fill="#A76E65"></path>
<path d="M159.236 42.9126C159.193 42.9126 159.147 42.9126 159.1 42.9083C158.348 42.8701 157.826 42.4239 157.669 41.6761L157.66 41.6336V41.5911C157.66 41.5528 157.656 41.5103 157.648 41.4721C157.639 41.3956 157.631 41.3234 157.631 41.2469C157.609 41.0344 157.062 37.138 157.015 36.9468C156.811 37.8476 156.624 40.635 156.45 41.5273C156.293 42.3049 155.758 42.7638 155.019 42.7638C154.904 42.7638 154.79 42.7511 154.675 42.7299C154.034 42.5599 153.516 41.9353 153.473 41.3021C153.329 39.3433 153.21 37.3207 153.099 35.3618L153.074 34.9794C152.968 33.5049 152.857 31.9795 152.726 30.4923C152.67 29.8209 152.607 29.1453 152.543 28.4697C152.416 27.1015 152.284 25.6865 152.208 24.3013C152.144 23.4005 152.123 22.4911 152.106 21.6116C152.089 20.9147 152.076 20.1924 152.038 19.4828C151.953 17.5324 151.834 15.5778 151.723 13.6869C151.622 13.16 151.779 12.7436 152.225 12.3782C152.488 12.1317 152.777 12 153.065 12C153.745 12 154.114 12.7011 154.229 13.1133C154.39 13.6699 154.556 14.3413 154.59 15.0509C154.649 15.9899 154.675 16.946 154.705 17.8681C154.734 18.7859 154.764 19.7377 154.819 20.6683C154.904 22.4699 155.015 24.2715 155.163 26.1752C155.282 28.0575 155.499 35.2089 155.516 35.4511C155.664 35.1154 156.327 30.2628 156.692 30.1311C156.803 30.0971 156.811 30.0249 156.943 30.0249C157.393 30.0249 157.758 30.2543 157.975 30.522C158.161 30.7557 158.684 35.3958 158.807 35.7315C158.841 35.4553 159.635 26.753 159.796 25.6525C160.034 23.9783 160.23 22.249 160.416 20.579C160.476 20.0351 160.54 19.4913 160.603 18.9431C160.68 18.1783 160.731 17.3752 160.777 16.6018C160.803 16.1939 160.828 15.786 160.858 15.3823C160.879 15.1571 160.896 14.9447 160.909 14.7322C160.93 14.3965 160.952 14.0523 161.007 13.7039C161.054 13.3172 161.695 12.5226 162.404 12.5226C162.574 12.5226 162.731 12.5651 162.88 12.6501C163.058 12.7691 163.839 13.3257 163.839 13.9716C163.869 14.7025 163.839 15.4843 163.75 16.2152C163.521 18.4672 163.228 20.7278 162.943 22.9118C162.807 24.0761 162.633 25.2573 162.472 26.3961C162.357 27.1865 162.243 27.9768 162.136 28.7714C161.95 30.2076 161.737 31.835 161.559 33.4115L161.47 34.1338C161.266 35.8292 161.07 37.4269 160.896 39.0671C160.811 39.7385 160.782 40.4438 160.811 41.1109C160.837 41.6676 160.68 42.152 160.378 42.4707C160.191 42.6704 159.835 42.9126 159.236 42.9126Z" fill="#A76E65"></path>
<path d="M170.12 42.8447C169.691 42.8447 169.113 42.8277 168.799 42.7554C167.963 42.5642 167.504 41.9396 167.551 41.0515C167.576 40.4184 167.61 39.6961 167.61 38.9652L167.619 38.5913C167.674 35.4342 167.729 32.1666 167.814 28.9415C167.827 28.1596 167.852 27.365 167.882 26.5704C167.92 25.5166 167.958 24.4246 167.958 23.3538C167.958 21.7986 167.907 20.2179 167.861 18.684C167.844 18.1656 167.797 16.5807 167.788 16.3045C167.763 15.4929 167.733 14.6516 167.754 13.8187C167.754 12.8542 168.243 12.1913 169.062 12.0553C169.147 12.0426 169.215 12.0383 169.283 12.0383C169.852 12.0383 170.324 12.3953 170.54 12.9944C170.651 13.2536 170.651 13.5468 170.651 13.8017C170.71 16.4787 170.736 19.2109 170.765 21.8496C170.765 22.555 170.774 23.2561 170.778 23.9572C170.791 25.3424 170.804 26.7744 170.765 28.1851C170.753 29.1072 170.71 30.0377 170.668 30.9386C170.617 32.0093 170.566 33.1141 170.566 34.2019C170.566 35.3024 170.604 36.4242 170.642 37.512C170.668 38.2428 170.693 38.9737 170.706 39.7046C171.606 39.6748 173.488 39.6366 173.836 39.6366C174.354 39.6366 175.067 39.7428 175.492 40.2484C175.683 40.4737 175.887 40.8688 175.785 41.4892C175.564 42.8064 170.676 42.8447 170.12 42.8447Z" fill="#A76E65"></path>
<path d="M181.641 42.9164C181.374 42.9164 181.098 42.8824 180.817 42.8102C180.363 42.6784 180.066 42.4405 179.777 42.211C179.688 42.1388 179.594 42.0666 179.492 41.9943C178.278 41.119 177.862 39.857 177.539 38.6417C177.462 38.3273 177.416 38.0171 177.369 37.7154C177.327 37.4222 177.284 37.146 177.22 36.8783C177.118 36.3939 177.186 35.9563 177.407 35.6248C177.556 35.4081 177.845 35.1277 178.392 35.03C178.503 35.013 178.605 35.0045 178.698 35.0045C179.599 35.0045 180.015 35.7268 180.1 36.3472C180.138 36.5724 180.172 36.8146 180.206 37.0611C180.265 37.5115 180.329 37.9746 180.439 38.408C180.58 39.0667 180.996 39.5935 181.679 39.9887C181.743 39.9887 181.896 39.9122 182.117 39.6318C182.877 38.6715 183.051 37.486 183.123 36.3472C183.297 34.1249 183.196 31.9748 182.813 29.9607C182.733 29.5825 182.597 29.1831 182.414 28.7922C182.346 28.635 182.278 28.4863 182.21 28.3375C182.066 28.0274 181.917 27.7044 181.798 27.3772C181.442 26.4977 180.796 25.6946 180.168 24.9212C179.985 24.696 179.807 24.4751 179.637 24.2541C178.821 23.2046 177.823 21.7768 177.369 20.0304C177.25 19.6013 177.31 19.1891 177.365 18.9172C177.412 18.7047 177.475 18.4073 177.505 18.1438C177.56 17.7954 177.603 17.4597 177.649 17.1198C177.76 16.3124 177.874 15.4796 178.061 14.685C178.359 13.5972 178.775 12.8621 179.34 12.4287C179.662 12.1823 180.104 12.0505 180.622 12.0505C181.102 12.0505 181.637 12.1653 182.011 12.3522C183.276 12.9259 184.011 14.0859 184.121 15.7048C184.121 15.7303 184.138 15.7898 184.176 15.8918C184.261 16.151 184.317 16.3549 184.346 16.5291C184.414 16.8606 184.414 17.2388 184.342 17.5574C184.198 18.1608 183.612 18.4243 183.094 18.4243C182.733 18.4243 182.418 18.3053 182.232 18.0971C181.994 17.7784 181.892 17.5022 181.798 17.2218C181.688 16.9668 181.595 16.6821 181.501 16.4059C181.459 16.2742 181.416 16.1467 181.369 16.015C181.259 15.6581 181.14 15.3564 181.017 15.1099C180.788 15.3904 180.656 15.7006 180.571 16.151C180.533 16.3634 180.512 16.5844 180.49 16.8181C180.469 17.0603 180.444 17.3152 180.397 17.5659C180.316 18.1608 180.261 18.7854 180.231 19.4101C180.189 19.9285 180.388 20.3321 180.796 20.944C180.86 21.0375 180.936 21.1437 181.008 21.2542C181.081 21.3604 181.149 21.4667 181.221 21.5644C181.527 22.019 181.854 22.4525 182.168 22.8731C182.423 23.2173 182.677 23.5572 182.924 23.9014C183.493 24.7003 184.096 25.5671 184.571 26.5571C185.671 28.9282 186.13 31.5159 185.969 34.4691C185.943 34.8642 185.947 35.2764 185.952 35.6758C185.956 36.1687 185.96 36.6786 185.909 37.1715C185.782 38.2636 185.591 39.8995 184.55 41.204C183.671 42.3597 182.72 42.9164 181.641 42.9164Z" fill="#A76E65"></path>
</g>
<path d="M7.46907 42.5514C6.61973 42.5514 6.01669 41.9948 5.90203 41.1025L5.82559 40.5798C5.71518 39.7852 5.60052 38.9651 5.39243 38.1833C5.09941 37.0063 4.76392 35.8123 4.44117 34.6607C4.25431 33.9979 4.0717 33.335 3.89334 32.6764C3.66402 31.8733 3.29456 29.3153 3.06948 28.5122C2.97606 28.1808 2.88262 27.8493 2.79344 27.5179C2.79344 28.5462 2.94633 31.3507 2.96756 32.3832C2.96756 32.6594 2.99304 32.9313 3.02277 33.216C3.0525 33.5092 3.08222 33.8152 3.08222 34.1253C3.08222 34.5333 3.06099 34.9412 3.03551 35.3364C3.00578 35.825 2.9803 36.3264 2.99304 36.8236C3.02277 38.0856 3.12893 39.2966 3.24359 40.5798L3.24784 40.6351C3.28182 40.788 3.28182 40.924 3.28182 41.0472C3.28182 41.1832 3.28182 41.3872 3.19263 41.6081C3.01852 42.1393 2.50042 42.4792 1.84643 42.4792C0.818729 42.4792 0.181724 41.8206 0.181724 40.754C0.211451 39.2498 0.156245 37.7754 0.0967913 36.2159L0.0925404 36.1522C0.084047 35.6763 0.0713061 35.2131 0.058566 34.7457C0.0330858 33.8534 0.00760764 32.9313 0.00760764 32.0093C0.00760764 31.1254 0.0288437 30.2331 0.0500773 29.3748C0.0713108 28.5207 0.0925404 27.6326 0.0925404 26.7616C0.0925404 26.0095 0.0713066 25.2446 0.0458264 24.501C0.0160995 23.5662 -0.00937684 22.6016 0.00336327 21.6456C0.00336327 21.004 0.075558 20.3666 0.143505 19.7505C0.194466 19.3128 0.241179 18.9006 0.262412 18.4842C0.292139 17.6259 0.304879 16.759 0.321866 15.8922C0.334606 15.0254 0.351593 14.1501 0.38132 13.2705C0.38132 12.9561 0.500228 12.7096 0.568176 12.5779C0.835718 12.0807 2.31781 12 2.3348 12C2.47919 12 2.5896 12.0212 2.67878 12.0722C2.82317 12.153 2.95057 12.2422 3.07373 12.3272C3.12469 12.3654 3.17989 12.3994 3.23085 12.4377C3.86361 12.9476 4.49637 13.4362 5.12913 13.9249C5.60901 14.3158 5.93176 14.7747 6.16108 15.3823C6.30122 15.7053 6.38616 16.0579 6.47109 16.3979C6.49657 16.4956 6.52205 16.5933 6.54753 16.6953C7.20152 19.3468 5.87231 21.2887 4.64076 22.6824C4.51336 22.8438 4.35198 22.9543 4.24582 23.0181C4.335 23.3282 4.42843 23.6384 4.52185 23.9444C4.61104 24.2418 4.70021 24.5308 4.78515 24.8197C5.0442 25.763 5.32023 26.7021 5.59627 27.6369C5.87231 28.5759 6.14409 29.515 6.40314 30.4498C6.69616 31.5334 6.95946 32.6381 7.21426 33.7047C7.39262 34.4525 7.57099 35.1961 7.75784 35.9397C8.09333 37.2867 8.43307 38.6082 8.76856 39.9254L8.79828 40.0359C8.845 40.1931 8.85773 40.3461 8.87047 40.4821C8.87472 40.5416 8.88322 40.5968 8.89171 40.6478C8.95541 40.9282 9.02761 41.5146 8.70061 41.9778C8.54773 42.1902 8.25046 42.4579 7.68565 42.5259C7.61345 42.5472 7.54126 42.5514 7.46907 42.5514ZM2.60234 20.9317C3.31154 20.1626 3.82539 19.3128 3.8806 18.7052C4.04622 17.2137 3.73621 16.0664 2.89537 15.1316L2.60234 20.9317Z" fill="#636732"></path>
<path d="M12.1212 42C11.8815 42 11.6169 41.9663 11.3317 41.8945L11.0134 41.8186V41.4854C11.0134 41.0256 11.0093 40.6291 11.0052 40.2663C11.001 39.6294 10.9928 39.1232 11.0134 38.6043V38.5579C11.0672 36.6429 11.125 34.6603 11.2656 32.7199C11.34 31.7244 11.4681 30.7331 11.588 29.7714C11.65 29.2694 11.7161 28.7674 11.774 28.2612C11.8856 27.2995 11.9848 26.3504 12.084 25.3971C12.1832 24.4438 12.2824 23.4904 12.394 22.5287C12.547 21.3476 12.7247 20.158 12.8983 19.0023C12.9851 18.4244 13.0719 17.8507 13.1546 17.2728C13.1959 16.9395 13.2249 16.5852 13.2497 16.2309C13.2786 15.8766 13.3075 15.5222 13.3489 15.1637C13.4605 14.4044 13.5762 13.6367 13.7829 12.8943C13.911 12.4598 14.2665 12.1856 14.3822 12.097C14.498 12.0084 14.622 12 14.7088 12C14.8741 12 16.3333 12.2278 16.5895 12.6834C16.7011 12.8816 16.883 13.2106 16.9244 13.5945C17.2302 15.2016 17.4576 16.8678 17.6808 18.475C17.7469 19.0149 17.8048 19.5506 17.8668 20.0863C17.9825 21.1367 18.1024 22.2208 18.2719 23.2795C18.429 24.2835 18.6274 25.3001 18.8216 26.2787C18.9704 27.0422 19.1193 27.8015 19.2515 28.5692C19.5822 30.5011 19.9253 32.5554 20.2064 34.5422C20.3345 35.4449 20.442 36.3476 20.5453 37.2165C20.599 37.6848 20.6569 38.1488 20.7148 38.617C20.7975 39.1485 20.8801 39.6631 20.9669 40.1777L20.9711 40.2115V40.2452C20.9711 40.2705 20.9752 40.2958 20.9793 40.3254C20.9876 40.4013 21 40.4814 21 40.5616C21 41.0003 20.8223 41.2702 20.6652 41.4263C20.5288 41.5908 20.3634 41.73 20.2022 41.8186C20.0906 41.8861 19.9708 41.8945 19.8633 41.8945C19.8509 41.8945 18.7431 41.8524 18.4166 41.5444C18.3422 41.4685 18.09 41.1774 18.0445 40.7177C18.0115 40.3296 17.9867 39.9499 17.9619 39.5661C17.9247 39.0135 17.8875 38.444 17.8213 37.8914C17.6643 36.2885 17.4658 34.7278 17.2385 33.0152C16.3787 32.8043 15.6678 32.703 15.0105 32.703C14.6757 32.703 14.3574 32.7283 14.0474 32.779C14.0392 32.8971 14.0268 33.0152 14.0185 33.1333C13.9978 33.378 13.973 33.631 13.9606 33.8799V33.9263C13.9028 35.3943 13.849 36.7778 13.8242 38.2163C13.8118 38.579 13.8118 38.9291 13.8118 39.2877C13.8118 39.6547 13.8118 40.0259 13.7994 40.4013C13.7416 41.1817 13.291 42 12.1212 42ZM16.7425 30.1215C16.2423 27.8015 15.9406 25.435 15.6512 23.1361C15.5603 22.4274 15.4694 21.7061 15.3702 20.9848L14.25 29.9992L16.7425 30.1215Z" fill="#636732"></path>
<path d="M25.8869 41.9917C24.733 41.9546 23.955 41.2606 24.002 40.3024C24.0699 38.4477 24.1064 36.5436 24.1064 34.6518C24.1064 33.5985 24.096 32.5411 24.0908 31.4919C24.0803 30.4469 24.0751 29.406 24.0751 28.3693C24.0751 26.8782 24.0751 25.3375 24.1117 23.8174C24.143 23.0574 24.1952 22.3098 24.2422 21.5622C24.3049 20.608 24.3727 19.6208 24.3936 18.6584C24.4197 17.3656 24.3571 16.0314 24.2944 14.7427L24.2474 13.772C24.2474 12.1694 25.605 12 26.1898 12C26.9678 12 27.5891 12.3181 27.8449 12.855L27.8554 12.8798L27.8606 12.9046C27.918 13.0863 27.9337 13.2433 27.9546 13.3961C27.9598 13.4622 27.9703 13.5283 27.9807 13.5944C28.0538 14.247 27.9024 19.3276 27.8084 22.2974C27.7666 23.4003 27.7614 24.5279 27.7562 25.6183C27.751 26.366 27.751 27.1177 27.7353 27.8777C27.7196 28.708 27.6831 29.5382 27.6465 30.3684C27.61 31.1945 27.5734 32.0207 27.5578 32.8426C27.5578 33.2516 27.5943 33.6687 27.6309 34.1066C27.657 34.4122 27.6831 34.722 27.6987 35.0359C27.7092 35.4986 27.7196 35.9488 27.7301 36.399C27.7614 37.7249 27.7979 39.1004 27.7718 40.4717C27.7718 41.0706 26.9678 42 25.9026 42L25.8869 41.9917Z" fill="#636732"></path>
<defs>
<clipPath id="clip0">
<rect width="179.288" height="54" fill="white" transform="translate(29.8889)"></rect>
</clipPath>
</defs>
</svg>